<svg width="24" height="24" viewBox="0 0 24 24" fill="none" xmlns="http://www.w3.org/2000/svg">
<path d="M14.3199 18.1406C13.1198 18.1406 12.1436 19.1185 12.1436 20.3205C12.1436 21.5225 13.1199 22.5004 14.3199 22.5004C15.5199 22.5004 16.4963 21.5225 16.4963 20.3205C16.4963 19.1185 15.5199 18.1406 14.3199 18.1406ZM14.3199 21.1924C13.8398 21.1924 13.4494 20.8014 13.4494 20.3205C13.4494 19.8396 13.8398 19.4485 14.3199 19.4485C14.8 19.4485 15.1904 19.8396 15.1904 20.3205C15.1904 20.8014 14.8 21.1924 14.3199 21.1924Z" fill="black"/>
<path d="M17.8156 9.7155C17.692 9.55703 17.5024 9.4646 17.3015 9.4646H4.5302L3.94258 7.00201C3.87228 6.70774 3.60958 6.5 3.3075 6.5H1.1529C0.792293 6.49997 0.5 6.79273 0.5 7.15392C0.5 7.51512 0.792293 7.80788 1.1529 7.80788H2.79215L4.91409 16.7009C4.98439 16.9954 5.24709 17.2029 5.54917 17.2029H15.7128C16.0129 17.2029 16.2745 16.998 16.3465 16.7063L17.9353 10.2757C17.9834 10.0804 17.9392 9.87397 17.8156 9.7155ZM15.202 15.895H6.06452L4.84226 10.7725H16.4673L15.202 15.895Z" fill="black"/>
<path d="M6.41951 18.1406C5.21945 18.1406 4.24316 19.1185 4.24316 20.3205C4.24316 21.5225 5.21949 22.5004 6.41951 22.5004C7.61954 22.5004 8.59586 21.5225 8.59586 20.3205C8.59586 19.1185 7.61954 18.1406 6.41951 18.1406ZM6.41951 21.1924C5.93941 21.1924 5.54897 20.8014 5.54897 20.3205C5.54897 19.8396 5.93941 19.4485 6.41951 19.4485C6.89961 19.4485 7.29005 19.8396 7.29005 20.3205C7.29005 20.8014 6.89961 21.1924 6.41951 21.1924Z" fill="black"/>
<circle cx="17.5" cy="7.5" r="6" fill="#E73C33"/>
</svg>
