<svg xmlns="http://www.w3.org/2000/svg" width="194" height="50" fill="none" viewBox="0 0 194 50">
    <path fill="#E63D33" d="M70.848 19.122v1.427c0 2.492-.785 4.451-2.312 5.942-1.528 1.47-3.479 2.194-5.833 2.194-2.567 0-4.688-.831-6.406-2.492-1.675-1.661-2.524-3.706-2.524-6.112 0-2.407.828-4.451 2.503-6.133 1.676-1.683 3.733-2.513 6.151-2.513 3.097 0 5.812 1.512 7.233 3.79l-3.203 1.853c-.742-1.129-2.248-1.938-4.03-1.938-1.4 0-2.566.469-3.5 1.406-.911.915-1.378 2.13-1.378 3.577 0 1.449.467 2.599 1.42 3.536.955.894 2.186 1.341 3.776 1.341 2.185 0 3.585-.852 4.221-2.555h-4.412v-3.323h8.294zM78.547 28.706c-1.74 0-3.224-.596-4.433-1.81-1.209-1.214-1.824-2.705-1.824-4.451 0-1.747.615-3.216 1.824-4.43 1.21-1.214 2.694-1.831 4.433-1.831 1.74 0 3.224.617 4.433 1.831 1.209 1.214 1.824 2.683 1.824 4.43 0 1.746-.615 3.237-1.824 4.45-1.188 1.215-2.672 1.81-4.433 1.81zm0-3.45c.785 0 1.421-.256 1.93-.788.51-.511.785-1.193.785-2.023 0-.83-.255-1.491-.785-2.023-.509-.512-1.166-.788-1.93-.788-.785 0-1.421.255-1.93.788-.51.51-.785 1.192-.785 2.023 0 .83.255 1.49.785 2.023.53.51 1.166.788 1.93.788z"/>
    <path fill="#0B1C2B" d="M103.511 11.775v16.59h-3.775v-9.647l-4.264 7.049h-.424l-4.284-7.05v9.648h-3.776v-16.59h3.776l4.496 7.39 4.475-7.39h3.776zM109.513 23.871c.403 1.108 1.336 1.662 2.842 1.662.976 0 1.718-.299 2.27-.895l2.842 1.64c-1.167 1.64-2.885 2.449-5.154 2.449-1.973 0-3.564-.596-4.773-1.768-1.187-1.192-1.76-2.683-1.76-4.472 0-1.767.594-3.28 1.739-4.45 1.188-1.215 2.694-1.81 4.539-1.81 1.718 0 3.139.595 4.263 1.81 1.167 1.192 1.718 2.683 1.718 4.45 0 .49-.042.98-.148 1.427h-8.378v-.043zm5.006-2.662c-.361-1.256-1.188-1.874-2.503-1.874-1.379 0-2.227.618-2.567 1.874h5.07zM121.2 26.896c-1.187-1.214-1.76-2.684-1.76-4.451 0-1.768.594-3.237 1.76-4.451 1.209-1.214 2.694-1.81 4.476-1.81 2.269 0 4.305 1.213 5.345 3.024l-3.097 1.81c-.424-.873-1.188-1.32-2.291-1.32-1.527 0-2.672 1.128-2.672 2.747 0 1.618 1.124 2.747 2.672 2.747 1.103 0 1.888-.447 2.291-1.32l3.097 1.767c-1.04 1.874-3.055 3.067-5.345 3.067-1.782 0-3.267-.596-4.476-1.81zM142.643 17.504c.849.873 1.273 2.066 1.273 3.599v7.283h-3.542v-6.75c0-1.406-.848-2.151-2.057-2.151-1.337 0-2.185.83-2.185 2.449v6.474h-3.542v-16.59h3.542v5.856c.7-.98 1.845-1.448 3.372-1.448 1.252-.042 2.312.384 3.139 1.278zM154.967 16.524h3.543v11.841h-3.543v-1.107c-.827.98-2.015 1.448-3.52 1.448-1.549 0-2.885-.596-3.988-1.81-1.103-1.214-1.654-2.705-1.654-4.451 0-1.747.551-3.216 1.654-4.43 1.103-1.214 2.439-1.831 3.988-1.831 1.505 0 2.693.468 3.52 1.448v-1.108zm-2.82 8.817c.827 0 1.505-.256 2.036-.788.509-.511.784-1.235.784-2.108s-.254-1.598-.784-2.109c-.509-.51-1.209-.788-2.036-.788-.828 0-1.506.256-2.037.788-.509.512-.784 1.236-.784 2.109s.254 1.597.784 2.108c.531.532 1.209.788 2.037.788zM171.193 17.504c.848.873 1.272 2.066 1.272 3.599v7.283h-3.542v-6.75c0-1.406-.848-2.151-2.057-2.151-1.336 0-2.185.83-2.185 2.449v6.474h-3.542V16.524h3.542v1.108c.7-.98 1.846-1.448 3.373-1.448 1.251 0 2.312.425 3.139 1.32zM175.201 14.863c-.827-.851-.827-2.172 0-3.002.849-.852 2.164-.852 2.991 0 .848.83.848 2.15 0 3.002-.827.83-2.142.83-2.991 0zm-.275 1.661h3.542v11.841h-3.542v-11.84zM182.137 26.896c-1.187-1.214-1.76-2.684-1.76-4.451 0-1.768.594-3.237 1.76-4.451 1.209-1.214 2.694-1.81 4.476-1.81 2.269 0 4.305 1.213 5.345 3.024l-3.097 1.81c-.424-.873-1.188-1.32-2.291-1.32-1.527 0-2.672 1.128-2.672 2.747 0 1.618 1.124 2.747 2.672 2.747 1.103 0 1.888-.447 2.291-1.32l3.097 1.767c-1.04 1.874-3.055 3.067-5.345 3.067-1.803 0-3.288-.596-4.476-1.81z"/>
    <path fill="#E63D33" d="M11.417 23.062c-1.166 0-2.1-.937-2.1-2.109 0-1.17.934-2.108 2.1-2.108 1.167 0 2.1.937 2.1 2.108 0 1.15-.933 2.109-2.1 2.109z"/>
    <path fill="#E63D33" d="M43.169 12.776c-.149-.085-.255-.256-.297-.426C41.98 6.344 38.63 2 34.536 2h-19.45c-4.093 0-7.444 4.344-8.335 10.35-.021.17-.127.34-.297.426C3.612 14.352 2 17.44 2 20.996c0 2.726.997 5.175 2.694 6.879.106.106.17.255.17.404v2.684c0 1.129.911 2.044 2.036 2.044h3.139c1.124 0 2.036-.915 2.036-2.044v-.49c0-.085.063-.15.148-.15h25.198c.085 0 .148.065.148.15v.49c0 1.129.912 2.044 2.036 2.044h3.14c1.124 0 2.036-.915 2.036-2.044v-2.684c0-.149.063-.298.17-.404 1.675-1.704 2.693-4.153 2.693-6.879-.021-3.556-1.633-6.644-4.475-8.22zm-31.9-2.066c.912-3.216 2.927-5.41 4.984-5.41h17.053c2.079 0 3.924 2.152 4.963 5.197.318.916-.212 1.342-.678 1.342H12.096c-.615.021-.976-.554-.827-1.129zm31.709 12.757c-.849 1.341-2.354 2.257-4.072 2.257-1.591 0-2.991-.788-3.882-1.98-.148-.192-.36-.299-.594-.299H16.105c-.318 0-.615.15-.806.405-.976 1.235-2.524 2.002-4.242 1.874-2.46-.192-4.412-2.279-4.476-4.75-.084-2.768 2.143-5.046 4.879-5.046 1.612 0 3.054.788 3.945 2.002.19.255.509.425.827.425h18.22c.233 0 .445-.106.593-.298.891-1.192 2.291-1.98 3.882-1.98 1.718 0 3.203.915 4.05 2.257.128.192-.02.447-.232.447H40.03c-1.146 0-2.058.959-2.058 2.151 0 1.193.912 2.151 2.058 2.151h2.736c.19-.042.318.192.212.384zM119.653 44.358l2.884-1.682c.594 1.363 1.612 2.044 3.076 2.044 1.315 0 1.994-.404 1.994-1.192 0-.448-.212-.767-.658-1.001-.424-.256-1.209-.554-2.375-.852-1.231-.34-2.058-.703-2.97-1.384-.848-.682-1.336-1.747-1.336-3.088 0-1.363.488-2.428 1.442-3.259.976-.809 2.121-1.214 3.457-1.214 2.397 0 4.285 1.15 5.345 3.323l-2.821 1.66c-.53-1.107-1.251-1.703-2.524-1.703-.996 0-1.569.511-1.569 1.108 0 .361.17.681.509.936.361.277 1.06.575 2.121.874l1.357.447c.319.106.722.298 1.209.575.509.255.87.532 1.125.81.53.574.996 1.532.996 2.725 0 1.406-.509 2.492-1.506 3.322-.996.788-2.311 1.193-3.923 1.193-2.97 0-5.006-1.384-5.833-3.642zM138.02 33.029c1.442 0 2.651.49 3.627 1.47.976.979 1.485 2.15 1.485 3.556 0 1.405-.509 2.577-1.485 3.556-.976.98-2.185 1.47-3.627 1.47h-2.184v4.62h-3.352V33.03h5.536zm0 6.921c1.018 0 1.782-.81 1.782-1.895 0-1.086-.743-1.896-1.782-1.896h-2.184v3.77h2.184v.021zM152.655 47.702l-.721-2.3h-5.43l-.721 2.3h-3.648l4.963-14.673h4.263l4.963 14.673h-3.669zm-5.175-5.452h3.415l-1.718-5.388-1.697 5.388zM165.233 47.702l-2.757-4.813h-1.591v4.813h-3.351V33.029h5.854c1.4 0 2.566.49 3.542 1.47.975.979 1.463 2.15 1.463 3.556 0 1.789-1.081 3.407-2.693 4.259l3.117 5.388h-3.584zm-4.327-11.543v3.77h2.503c.912 0 1.675-.81 1.675-1.896 0-1.086-.742-1.895-1.675-1.895h-2.503v.021zM173.738 44.465h5.854v3.237h-9.184V33.029h9.078v3.237h-5.748v2.428h5.218v3.194h-5.218v2.577zM180.738 44.358l2.884-1.682c.594 1.363 1.612 2.044 3.076 2.044 1.315 0 1.994-.404 1.994-1.192 0-.448-.213-.767-.658-1.001-.424-.256-1.209-.554-2.375-.852-1.231-.34-2.058-.703-2.97-1.384-.848-.682-1.336-1.747-1.336-3.088 0-1.363.488-2.428 1.442-3.259.976-.809 2.121-1.214 3.457-1.214 2.397 0 4.285 1.15 5.345 3.323l-2.821 1.66c-.53-1.107-1.251-1.703-2.524-1.703-.996 0-1.569.511-1.569 1.108 0 .361.17.681.509.936.36.277 1.06.575 2.121.874l1.357.447c.319.106.722.298 1.209.575.509.255.87.532 1.124.81.531.574.997 1.532.997 2.725 0 1.406-.509 2.492-1.506 3.322-.996.788-2.311 1.193-3.923 1.193-2.97 0-5.006-1.384-5.833-3.642z"/>
</svg>
