<svg xmlns="http://www.w3.org/2000/svg" width="16" height="15.213" viewBox="0 0 16 15.213">
  <defs>
    <style>
      .cls-1 {
        fill: #282828;
      }
    </style>
  </defs>
  <path id="profile" class="cls-1" d="M15.435,15.213H.565A.559.559,0,0,1,0,14.649,5.374,5.374,0,0,1,5.373,9.285h5.254A5.374,5.374,0,0,1,16,14.649.559.559,0,0,1,15.435,15.213Zm-10.062-4.8a4.252,4.252,0,0,0-4.2,3.672H14.831a4.249,4.249,0,0,0-4.2-3.672Zm2.6-1.876A4.269,4.269,0,1,1,11,1.246a4.223,4.223,0,0,1,1.255,3.016A4.284,4.284,0,0,1,7.974,8.538Zm0-7.423a3.148,3.148,0,1,0,3.153,3.148A3.154,3.154,0,0,0,7.974,1.115Z"/>
</svg>
