<svg width="20" height="20" viewBox="0 0 20 20" fill="none" xmlns="http://www.w3.org/2000/svg">
<g clip-path="url(#clip0_648_10860)">
<path fill-rule="evenodd" clip-rule="evenodd" d="M10.1126 3.56994L10.6905 5.07788C10.7079 5.12323 10.7483 5.15231 10.7972 5.15469L12.4233 5.2332C12.4742 5.23565 12.5161 5.26744 12.5319 5.31548C12.5476 5.36353 12.5326 5.41367 12.4928 5.44531L11.2239 6.45578C11.1858 6.48614 11.1703 6.53326 11.1831 6.58003L11.6102 8.13648C11.6236 8.18524 11.6061 8.23456 11.5648 8.26425C11.5236 8.29393 11.4708 8.29521 11.4281 8.26755L10.066 7.38414C10.0251 7.35758 9.97507 7.35758 9.93413 7.38414L8.57205 8.26755C8.52939 8.29521 8.4766 8.29393 8.43538 8.26425C8.39412 8.23456 8.3766 8.1852 8.38997 8.13648L8.81706 6.58003C8.8299 6.53326 8.81445 6.48614 8.77631 6.45578L7.50738 5.44531C7.46763 5.41367 7.45254 5.36353 7.46831 5.31548C7.48405 5.26744 7.52602 5.23569 7.57695 5.2332L9.20302 5.15469C9.25191 5.15235 9.29234 5.12323 9.30968 5.07788L9.88754 3.56994C9.90564 3.52271 9.94908 3.49302 10.0001 3.49302C10.0511 3.49302 10.0945 3.52271 10.1126 3.56994ZM6.96336 3.09555L7.98043 4.00289C8.09796 4.10768 8.279 4.09824 8.38477 3.9818C8.49054 3.86536 8.48101 3.68599 8.36348 3.5812L7.34641 2.67385C7.22888 2.56906 7.04784 2.57851 6.94207 2.69495C6.8363 2.81139 6.8458 2.99075 6.96336 3.09555ZM12.6537 2.67385L11.6307 3.58649C11.5132 3.69128 11.5036 3.87065 11.6094 3.98709C11.7152 4.10353 11.8962 4.11297 12.0138 4.00818L13.0368 3.09555C13.1543 2.99075 13.1638 2.81139 13.0581 2.69495C12.9523 2.57851 12.7712 2.56906 12.6537 2.67385ZM10.2868 2.43774C10.2868 2.59463 10.1584 2.72183 10.0001 2.72183C9.84173 2.72183 9.71334 2.59463 9.71334 2.43774V1.39517C9.71334 1.23828 9.84173 1.11108 10.0001 1.11108C10.1584 1.11108 10.2868 1.23828 10.2868 1.39517V2.43774ZM10.0001 9.17908C11.1112 9.17908 12.0119 10.0715 12.0119 11.1722C12.0119 12.2731 11.1112 13.1654 10.0001 13.1654C8.889 13.1654 7.98831 12.2731 7.98831 11.1722C7.98831 10.0714 8.889 9.17908 10.0001 9.17908ZM13.9561 17.0385C13.7425 15.0608 12.0529 13.5206 10.0001 13.5206C7.94724 13.5206 6.25766 15.0608 6.04404 17.0386V17.8354C6.04404 18.4156 6.52171 18.8889 7.10738 18.8889H12.8928C13.4784 18.8889 13.9561 18.4156 13.9561 17.8354V17.0385ZM16.0126 10.6265C16.8438 10.6265 17.5177 11.2942 17.5177 12.1177C17.5177 12.9412 16.8438 13.6088 16.0126 13.6088C15.1814 13.6088 14.5075 12.9412 14.5075 12.1177C14.5075 11.2942 15.1813 10.6265 16.0126 10.6265ZM3.98757 10.6265C4.8188 10.6265 5.49263 11.2942 5.49263 12.1177C5.49263 12.9412 4.8188 13.6088 3.98757 13.6088C3.15635 13.6088 2.48251 12.9412 2.48251 12.1177C2.48251 11.2942 3.15635 10.6265 3.98757 10.6265ZM3.98754 14.0071C4.86467 14.0071 5.65317 14.383 6.19798 14.981C5.8135 15.5578 5.55855 16.2289 5.4764 16.9564H1.79344C1.57024 16.9564 1.3782 16.8603 1.24576 16.6823C1.11332 16.5043 1.07745 16.2941 1.14347 16.0829C1.51928 14.8805 2.6505 14.0071 3.98754 14.0071ZM16.0126 14.0071C17.3497 14.0071 18.4809 14.8805 18.8566 16.0829C18.9226 16.2941 18.8868 16.5043 18.7543 16.6823C18.6219 16.8603 18.4299 16.9564 18.2067 16.9564H14.5237C14.4415 16.2289 14.1866 15.5578 13.8021 14.981C14.347 14.383 15.1355 14.0071 16.0126 14.0071ZM3.76158 3.56994L4.33944 5.07788C4.35682 5.12323 4.39725 5.15231 4.44614 5.15469L6.07221 5.2332C6.12314 5.23565 6.16508 5.26744 6.18085 5.31548C6.19658 5.36353 6.18153 5.41367 6.14178 5.44531L4.87285 6.45578C4.83471 6.48614 4.81926 6.53326 4.83209 6.58003L5.25919 8.13648C5.27256 8.18524 5.25503 8.23456 5.21378 8.26425C5.17253 8.29393 5.11977 8.29521 5.07708 8.26755L3.71495 7.38414C3.67402 7.35758 3.62402 7.35758 3.58309 7.38414L2.221 8.26755C2.17835 8.29521 2.12555 8.29393 2.08433 8.26425C2.04308 8.23456 2.02555 8.1852 2.03892 8.13648L2.46602 6.58003C2.47885 6.53326 2.4634 6.48614 2.42527 6.45578L1.15633 5.44528C1.11659 5.41364 1.1015 5.36349 1.11727 5.31545C1.133 5.2674 1.17497 5.23565 1.22591 5.23317L2.85197 5.15465C2.90086 5.15231 2.94129 5.12319 2.95864 5.07784L3.53653 3.56994C3.55463 3.52271 3.59807 3.49302 3.64907 3.49302C3.70008 3.49302 3.74348 3.52271 3.76158 3.56994ZM16.4447 3.56994L17.0225 5.07788C17.0399 5.12323 17.0803 5.15231 17.1292 5.15469L18.7553 5.2332C18.8062 5.23565 18.8482 5.26744 18.8639 5.31548C18.8797 5.36353 18.8646 5.41367 18.8249 5.44531L17.5559 6.45578C17.5178 6.48614 17.5024 6.53326 17.5152 6.58003L17.9423 8.13648C17.9557 8.18524 17.9381 8.23456 17.8969 8.26425C17.8557 8.29393 17.8029 8.29521 17.7602 8.26755L16.3981 7.38414C16.3572 7.35758 16.3071 7.35758 16.2662 7.38414L14.9041 8.26755C14.8615 8.29521 14.8087 8.29393 14.7674 8.26425C14.7262 8.23456 14.7086 8.1852 14.722 8.13648L15.1491 6.58003C15.1619 6.53326 15.1465 6.48614 15.1084 6.45578L13.8394 5.44531C13.7997 5.41367 13.7846 5.36353 13.8004 5.31548C13.8161 5.26744 13.8581 5.23569 13.909 5.2332L15.5351 5.15469C15.584 5.15235 15.6244 5.12323 15.6417 5.07788L16.2196 3.56994C16.2377 3.52271 16.2811 3.49302 16.3321 3.49302C16.3831 3.49302 16.4266 3.52271 16.4447 3.56994Z" fill="#F5A623"/>
</g>
<defs>
<clipPath id="clip0_648_10860">
<rect width="20" height="20" fill="white"/>
</clipPath>
</defs>
</svg>
