<?xml version="1.0" encoding="utf-8"?>
<!-- Generator: Adobe Illustrator 22.0.0, SVG Export Plug-In . SVG Version: 6.00 Build 0)  -->
<svg version="1.1" id="Layer_1" xmlns="http://www.w3.org/2000/svg" xmlns:xlink="http://www.w3.org/1999/xlink" x="0px" y="0px"
	 viewBox="0 0 62 62" style="enable-background:new 0 0 62 62;" xml:space="preserve">
<style type="text/css">
	.st0{fill:#FFFFFF;}
	.st1{opacity:0.21;}
	.st2{fill:#1D1C1A;}
	.st3{fill:#E63D33;}
	.st4{fill:#AE202B;}
	.st5{fill:#FFF7F7;}
	.st6{opacity:0.1;}
	.st7{fill:#7393CB;}
	.st8{fill:#1C1C1A;}
	.st9{fill:#E53E33;}
	.st10{fill:#AD202B;}
	.st11{opacity:0.1;fill:#AD202B;}
	.st12{fill:#C22329;}
	.st13{opacity:0.1;fill:#C22329;}
	.st14{fill:#FDF6F6;}
	.st15{clip-path:url(#SVGID_4_);}
	.st16{fill:#DDE8F4;}
	.st17{display:none;fill:none;stroke:#1C1C1A;stroke-width:2;stroke-miterlimit:10;}
	.st18{fill:#FDF6F6;stroke:#1C1C1A;stroke-width:0.5;stroke-miterlimit:10;}
	.st19{fill:none;stroke:#1C1C1A;stroke-miterlimit:10;}
	.st20{fill:#F7E3E2;}
	.st21{opacity:0.21;fill:#1C1C1A;}
	.st22{fill:#C32228;}
	.st23{fill:#FFF7F7;stroke:#1C1C1A;stroke-width:0.15;stroke-miterlimit:10;}
	.st24{fill:#C0252A;}
	.st25{fill:#0B1C2B;}
	.st26{opacity:0.1;fill:#1C1C1A;}
	.st27{fill:#696969;}
	.st28{fill:#FFF7F7;stroke:#1C1C1A;stroke-width:0.5;stroke-miterlimit:10;}
	.st29{fill:none;}
	.st30{fill:#FFF8F9;stroke:#1D1C1A;stroke-width:0.25;stroke-miterlimit:10;}
	.st31{fill:#E63D32;}
	.st32{clip-path:url(#SVGID_12_);}
	.st33{fill:#E63D32;stroke:#1D1C1A;stroke-width:0.5;stroke-miterlimit:10;}
	.st34{fill:#E63D34;}
	.st35{fill:#2E2E2E;}
	.st36{fill:#AA202B;}
	.st37{clip-path:url(#SVGID_16_);}
	.st38{fill:#FFF8F9;}
	.st39{fill:#231F20;}
	.st40{fill:#242A3C;}
	.st41{clip-path:url(#SVGID_20_);}
	.st42{fill:none;stroke:#CDCA87;stroke-width:0.5;stroke-miterlimit:10;}
	.st43{clip-path:url(#SVGID_22_);}
	.st44{clip-path:url(#SVGID_24_);fill:#1D1C1A;}
	.st45{clip-path:url(#SVGID_26_);}
	.st46{clip-path:url(#SVGID_28_);fill:#1D1C1A;}
	.st47{fill:#FFFFFF;stroke:#1D1C1A;stroke-width:0.5;stroke-miterlimit:10;}
	.st48{fill:#D7E0E5;}
	.st49{opacity:0.5;fill:#D7E0E5;}
	.st50{clip-path:url(#SVGID_32_);}
	.st51{fill:#F6F7F7;stroke:#1C1C1A;stroke-width:0.5;stroke-miterlimit:10;}
	.st52{fill:#FFFFFF;stroke:#231F20;stroke-width:0.5;stroke-miterlimit:10;}
	.st53{fill:#D8E0E6;stroke:#1D1C1A;stroke-width:0.5;stroke-miterlimit:10;}
	.st54{clip-path:url(#SVGID_34_);}
	.st55{clip-path:url(#SVGID_36_);fill:#1D1C1A;}
	.st56{clip-path:url(#SVGID_38_);}
	.st57{clip-path:url(#SVGID_40_);fill:#1D1C1A;}
	.st58{opacity:0.1;fill:#1D1C1A;}
	.st59{clip-path:url(#SVGID_44_);}
	.st60{clip-path:url(#SVGID_46_);fill:#1D1C1A;}
	.st61{clip-path:url(#SVGID_48_);}
	.st62{clip-path:url(#SVGID_50_);fill:#1D1C1A;}
	.st63{clip-path:url(#SVGID_54_);}
	.st64{clip-path:url(#SVGID_56_);}
	.st65{clip-path:url(#SVGID_58_);fill:#1D1C1A;}
	.st66{clip-path:url(#SVGID_60_);}
	.st67{clip-path:url(#SVGID_62_);fill:#1D1C1A;}
	.st68{clip-path:url(#SVGID_66_);}
	.st69{clip-path:url(#SVGID_68_);fill:#1D1C1A;}
	.st70{clip-path:url(#SVGID_70_);}
	.st71{clip-path:url(#SVGID_72_);fill:#1D1C1A;}
	.st72{clip-path:url(#SVGID_76_);}
	.st73{clip-path:url(#SVGID_78_);}
	.st74{clip-path:url(#SVGID_80_);fill:#1D1C1A;}
	.st75{clip-path:url(#SVGID_82_);}
	.st76{clip-path:url(#SVGID_84_);fill:#1D1C1A;}
	.st77{clip-path:url(#SVGID_88_);}
	.st78{fill:#FDF6F6;stroke:#1C1C1A;stroke-width:0.25;stroke-miterlimit:10;}
	.st79{clip-path:url(#SVGID_90_);}
	.st80{fill:#D8E0E6;}
	.st81{clip-path:url(#SVGID_94_);}
	.st82{clip-path:url(#SVGID_96_);}
	.st83{clip-path:url(#SVGID_100_);}
	.st84{clip-path:url(#SVGID_102_);}
	.st85{clip-path:url(#SVGID_104_);}
	.st86{clip-path:url(#SVGID_106_);fill:#1D1C1A;}
	.st87{clip-path:url(#SVGID_108_);}
	.st88{clip-path:url(#SVGID_110_);fill:#1D1C1A;}
	.st89{clip-path:url(#SVGID_114_);}
	.st90{clip-path:url(#SVGID_116_);}
	.st91{clip-path:url(#SVGID_118_);fill:#1D1C1A;}
	.st92{clip-path:url(#SVGID_120_);}
	.st93{clip-path:url(#SVGID_122_);fill:#1D1C1A;}
	.st94{fill:#D8E0E6;stroke:#1D1C1A;stroke-width:0.25;stroke-miterlimit:10;}
</style>
<g>
	<g>
		<g>
			<g>
				<g>
					<path class="st17" d="M16.3,36.8V18.6c0-1.5,1.2-2.7,2.7-2.7h0c1.5,0,2.7,1.2,2.7,2.7v18.1c2.3,1,4,3.3,4,6
						c0,3.6-2.9,6.5-6.5,6.5s-6.5-2.9-6.5-6.5C12.7,40.1,14.2,37.9,16.3,36.8z"/>
				</g>
			</g>
		</g>
	</g>
</g>
<g>
	<g>
		<g>
			<g>
				<g>
					<path class="st17" d="M16.2,36.8V18.6c0-1.5,1.2-2.7,2.7-2.7h0c1.5,0,2.7,1.2,2.7,2.7v18.1c2.3,1,4,3.3,4,6
						c0,3.6-2.9,6.5-6.5,6.5s-6.5-2.9-6.5-6.5C12.6,40.1,14.1,37.9,16.2,36.8z"/>
				</g>
			</g>
		</g>
	</g>
</g>
<g>
	<g>
		<g>
			<g>
				<g>
					<path class="st8" d="M45.2,31.6l0.7-0.1c0,0-0.1-1.2,0.3-1.5c0.4,0,1.8,0.2,2,0.4c0.2,0.2,0.5,0.7,0.4,1.1
						c-0.1,0.3-1.4,0.5-2.1,0.5c-0.7,0-1.1,0.1-1.1,0.1"/>
					<path class="st26" d="M45.2,31.6l0.7-0.1c0,0-0.1-1.2,0.3-1.5c0.4,0,1.8,0.2,2,0.4c0.2,0.2,0.5,0.7,0.4,1.1
						c-0.1,0.3-1.4,0.5-2.1,0.5c-0.7,0-1.1,0.1-1.1,0.1"/>
				</g>
				<g>
					<g>
						<path class="st12" d="M21.8,31.6l-0.7-0.1c0,0,0.1-1.2-0.3-1.5c-0.4,0-1.8,0.2-2,0.4s-0.5,0.7-0.4,1.1
							c0.1,0.3,1.4,0.5,2.1,0.5c0.7,0,1.1,0.1,1.1,0.1"/>
						<path class="st13" d="M21.8,31.6l-0.7-0.1c0,0,0.1-1.2-0.3-1.5c-0.4,0-1.8,0.2-2,0.4s-0.5,0.7-0.4,1.1
							c0.1,0.3,1.4,0.5,2.1,0.5c0.7,0,1.1,0.1,1.1,0.1"/>
					</g>
				</g>
				<path class="st47" d="M33.6,46.8l7-0.1c0,0,0.9-0.1,1.4,0.1c0.5,0.2,6.3-0.6,6.3-0.6l0.1,0.1c0,0,0.5,0.2,0.7-0.5
					c1-7-0.1-10.6-0.2-11c-0.1-0.3-1.5-1.4-1.9-1.6s-1.2-1-1.2-1s-0.2-0.3-0.5-1.1s-2-5.1-3.6-5.6c-1.5-0.4-5.6-0.8-7.6-0.8
					c-0.3,0-0.6,0-0.9,0c-1.9,0-6.2,0.3-7.6,0.8c-1.6,0.5-3.3,4.9-3.6,5.6s-0.5,1.1-0.5,1.1s-0.9,0.8-1.2,1s-1.9,1.2-1.9,1.6
					c-0.1,0.3-1.2,4-0.2,11c0.2,0.7,0.7,0.5,0.7,0.5l0.1-0.1c0,0,5.8,0.7,6.3,0.6s1.4-0.1,1.4-0.1L33.6,46.8z"/>
				<path class="st48" d="M48.1,43.2c0,0-5.9,0.6-6.4,0.7c-0.7,0.1-1.3,0.2-1.3,0.2l-6.9,0.1l-6.9-0.1c0,0-3.4-0.6-3.9-0.5
					c-0.5,0.2-3.6-0.3-3.6-0.3s-1.4-3-1.4-4.3c-0.1,1.7,0,3.9,0.4,6.7c0.3,0.2,0.8,0.4,0.8,0.4s5.8,0.7,6.3,0.6
					c0.5-0.2,1.4-0.1,1.4-0.1l6.9,0.1l6.9-0.1c0,0,0.9-0.1,1.4,0.1c0.5,0.2,6.3-0.6,6.3-0.6s0.5,0,0.7-0.1c0.1,0,0.1-0.2,0.1-0.2
					c0.4-2.8,0.5-5,0.4-6.7C49.2,40.2,48.1,43.2,48.1,43.2z"/>
				<path class="st48" d="M18.9,35.2c0,0-0.7,2.1,0.4,2.7c0.9,0.5,1.2,0.5,1.2,0.5l0.9-0.3c0,0,2,0.6,2.8,0.5
					c0.8-0.1,1.5-0.6,1.5-0.6S24.5,36.2,18.9,35.2z"/>
				<path class="st48" d="M48.2,35.2c0,0,0.7,2.1-0.4,2.7c-0.9,0.5-1.2,0.5-1.2,0.5l-0.9-0.3c0,0-2,0.6-2.8,0.5
					c-0.8-0.1-1.5-0.6-1.5-0.6S42.6,36.2,48.2,35.2z"/>
				<path class="st8" d="M48.7,41.7c0,0-3.2,0.7-3.7,1.3c-0.5,0.6-0.4,1.1-0.4,1.1l2.3-0.3c0,0,0.1,0.2,0.1,0.2
					C47.4,44,48.9,43.6,48.7,41.7z"/>
				<path class="st8" d="M49,45.9c0,0-0.1,2.3-0.9,2.3c-0.8,0-2.8,0.1-3,0c-0.2-0.1-0.7-0.5-0.7-1.5"/>
				<path class="st8" d="M24.9,26.6h17.3c0,0-0.3-0.4-0.7-1c-1.5-0.4-5.6-0.8-7.5-0.7c-0.3,0-0.6,0-0.9,0c-1.9,0-5.8,0.3-7.4,0.7
					C25.4,25.9,25.1,26.3,24.9,26.6z"/>
				<path class="st48" d="M44.8,32.2c-0.2-1.1-1.9-4.9-2.9-5.7c-0.8-0.1-3.1-0.3-5.1-0.4c-2.2-0.2-4.5-0.2-6.7,0
					c-2,0.1-4.2,0.3-5,0.4c-1,0.8-2.6,4.7-2.8,5.9c0.7,0,11.2-0.1,11.2-0.1"/>
				<g>
					<defs>
						<path id="SVGID_111_" d="M18.4,41.7c0,0,3.3,0.7,3.8,1.3c0.5,0.6,0.4,1.1,0.4,1.1l-2.3-0.3c0,0-0.2,0.2-0.2,0.2
							C19.8,44,18.3,43.6,18.4,41.7z"/>
					</defs>
					<use xlink:href="#SVGID_111_"  style="overflow:visible;fill:#1C1C1A;"/>
					<clipPath id="SVGID_2_">
						<use xlink:href="#SVGID_111_"  style="overflow:visible;"/>
					</clipPath>
				</g>
			</g>
			<g>
				<path class="st8" d="M38.2,40h-9.1c-0.1,0-0.2-0.1-0.2-0.2v0c0-0.1,0.1-0.2,0.2-0.2h9.1c0.1,0,0.2,0.1,0.2,0.2v0
					C38.4,39.9,38.3,40,38.2,40z"/>
				<path class="st8" d="M38,41.1h-8.7c-0.1,0-0.2-0.1-0.2-0.2v0c0-0.1,0.1-0.2,0.2-0.2H38c0.1,0,0.2,0.1,0.2,0.2v0
					C38.2,41,38.1,41.1,38,41.1z"/>
				<path class="st8" d="M37.7,42.2h-8.2c-0.1,0-0.2-0.1-0.2-0.2v0c0-0.1,0.1-0.2,0.2-0.2h8.2c0.1,0,0.2,0.1,0.2,0.2v0
					C37.9,42.1,37.8,42.2,37.7,42.2z"/>
			</g>
		</g>
		<g>
			<g>
				<g>
					<path class="st8" d="M33.3,24.2c-0.2,0-0.4-0.2-0.4-0.4V13.1c0-0.2,0.2-0.4,0.4-0.4c0.2,0,0.4,0.2,0.4,0.4v10.7
						C33.7,24,33.5,24.2,33.3,24.2z"/>
				</g>
				<g>
					<path class="st8" d="M33.3,24.2c-0.2,0-0.4-0.2-0.4-0.4V13.1c0-0.2,0.2-0.4,0.4-0.4c0.2,0,0.4,0.2,0.4,0.4v10.7
						C33.7,24,33.5,24.2,33.3,24.2z"/>
				</g>
				<g>
					<path class="st8" d="M33.3,16.7C33.3,16.7,33.3,16.7,33.3,16.7c-0.1,0-0.2-0.1-0.3-0.1l-1.9-2.1c-0.2-0.2-0.1-0.4,0-0.6
						c0.2-0.1,0.4-0.1,0.6,0l1.6,1.8l1.6-1.6c0.2-0.2,0.4-0.2,0.6,0c0.2,0.2,0.2,0.4,0,0.6l-1.9,1.9C33.5,16.6,33.4,16.7,33.3,16.7z
						"/>
				</g>
				<g>
					<path class="st8" d="M33.3,16.7C33.3,16.7,33.3,16.7,33.3,16.7c-0.1,0-0.2-0.1-0.3-0.1l-1.9-2.1c-0.2-0.2-0.1-0.4,0-0.6
						c0.2-0.1,0.4-0.1,0.6,0l1.6,1.8l1.6-1.6c0.2-0.2,0.4-0.2,0.6,0c0.2,0.2,0.2,0.4,0,0.6l-1.9,2C33.5,16.6,33.4,16.7,33.3,16.7z"
						/>
				</g>
				<g>
					<path class="st8" d="M31.4,23.4c-0.1,0-0.2,0-0.3-0.1c-0.2-0.2-0.2-0.4,0-0.6l1.9-2c0.1-0.1,0.2-0.1,0.3-0.1c0,0,0,0,0,0
						c0.1,0,0.2,0,0.3,0.1l1.9,1.9c0.2,0.2,0.2,0.4,0,0.6c-0.2,0.2-0.4,0.2-0.6,0l-1.6-1.6l-1.6,1.7C31.6,23.4,31.5,23.4,31.4,23.4z
						"/>
				</g>
				<g>
					<path class="st8" d="M33.3,24.2c-0.2,0-0.4-0.2-0.4-0.4V13.1c0-0.2,0.2-0.4,0.4-0.4c0.2,0,0.4,0.2,0.4,0.4v10.7
						C33.7,24,33.5,24.2,33.3,24.2z"/>
				</g>
				<g>
					<path class="st8" d="M33.3,24.2c-0.2,0-0.4-0.2-0.4-0.4V13.1c0-0.2,0.2-0.4,0.4-0.4c0.2,0,0.4,0.2,0.4,0.4v10.7
						C33.7,24,33.5,24.2,33.3,24.2z"/>
				</g>
				<g>
					<path class="st8" d="M33.3,16.7C33.3,16.7,33.3,16.7,33.3,16.7c-0.1,0-0.2-0.1-0.3-0.1l-1.9-2.1c-0.2-0.2-0.1-0.4,0-0.6
						c0.2-0.1,0.4-0.1,0.6,0l1.6,1.8l1.6-1.6c0.2-0.2,0.4-0.2,0.6,0c0.2,0.2,0.2,0.4,0,0.6l-1.9,2C33.5,16.6,33.4,16.7,33.3,16.7z"
						/>
				</g>
				<g>
					<path class="st8" d="M31.4,23.4c-0.1,0-0.2,0-0.3-0.1c-0.2-0.2-0.2-0.4,0-0.6l1.9-2c0.1-0.1,0.2-0.1,0.3-0.1c0,0,0,0,0,0
						c0.1,0,0.2,0,0.3,0.1l1.9,1.9c0.2,0.2,0.2,0.4,0,0.6c-0.2,0.2-0.4,0.2-0.6,0l-1.6-1.6l-1.6,1.7C31.6,23.4,31.5,23.4,31.4,23.4z
						"/>
				</g>
				<g>
					<path class="st8" d="M37.9,21.6c-0.1,0-0.1,0-0.2-0.1l-9.2-5.5c-0.2-0.1-0.3-0.4-0.1-0.6c0.1-0.2,0.4-0.3,0.6-0.1l9.2,5.5
						c0.2,0.1,0.3,0.4,0.1,0.6C38.1,21.5,38,21.6,37.9,21.6z"/>
				</g>
				<g>
					<path class="st8" d="M36.5,22.6c-0.2,0-0.4-0.2-0.4-0.4L36,20.3c0-0.2,0.1-0.3,0.3-0.4l1.8-0.7c0.2-0.1,0.4,0,0.5,0.2
						c0.1,0.2,0,0.4-0.2,0.5l-1.5,0.6l0.1,1.6C36.9,22.4,36.8,22.6,36.5,22.6C36.5,22.6,36.5,22.6,36.5,22.6z"/>
				</g>
				<g>
					<path class="st8" d="M28.7,17.9c-0.2,0-0.3-0.1-0.4-0.3c-0.1-0.2,0-0.4,0.2-0.5l1.5-0.6L30,15c0-0.2,0.2-0.4,0.4-0.4
						c0.2,0,0.4,0.2,0.4,0.4l0.1,1.9c0,0.2-0.1,0.3-0.3,0.4l-1.8,0.7C28.8,17.9,28.7,17.9,28.7,17.9z"/>
				</g>
				<g>
					<path class="st8" d="M28.6,21.8c-0.1,0-0.3-0.1-0.4-0.2c-0.1-0.2-0.1-0.4,0.1-0.6l9.2-5.5c0.2-0.1,0.4-0.1,0.6,0.1
						c0.1,0.2,0.1,0.4-0.1,0.6l-9.2,5.5C28.8,21.8,28.7,21.8,28.6,21.8z"/>
				</g>
				<g>
					<path class="st8" d="M38.1,18c0,0-0.1,0-0.1,0l-1.9-0.7c-0.2-0.1-0.3-0.2-0.3-0.4L35.7,15c0-0.2,0.2-0.4,0.4-0.4
						c0.2,0,0.4,0.2,0.4,0.4l0.1,1.7l1.6,0.6c0.2,0.1,0.3,0.3,0.2,0.5C38.4,17.9,38.2,18,38.1,18z"/>
				</g>
				<g>
					<path class="st8" d="M30.5,22.5c-0.2,0-0.4-0.2-0.4-0.4l0-1.6l-1.7-0.8c-0.2-0.1-0.3-0.3-0.2-0.5c0.1-0.2,0.3-0.3,0.5-0.2l2,1
						c0.1,0.1,0.2,0.2,0.2,0.4l0,1.8C30.9,22.4,30.7,22.5,30.5,22.5L30.5,22.5z"/>
				</g>
			</g>
			<g>
				<defs>
					<rect id="SVGID_113_" x="26.5" y="18.6" width="14.2" height="8.3"/>
				</defs>
				<clipPath id="SVGID_4_">
					<use xlink:href="#SVGID_113_"  style="overflow:visible;"/>
				</clipPath>
				<g class="st15">
					<g>
						<path class="st8" d="M33.3,24.2c-0.2,0-0.4-0.2-0.4-0.4V13.1c0-0.2,0.2-0.4,0.4-0.4c0.2,0,0.4,0.2,0.4,0.4v10.7
							C33.7,24,33.5,24.2,33.3,24.2z"/>
					</g>
					<g>
						<path class="st8" d="M33.3,24.2c-0.2,0-0.4-0.2-0.4-0.4V13.1c0-0.2,0.2-0.4,0.4-0.4c0.2,0,0.4,0.2,0.4,0.4v10.7
							C33.7,24,33.5,24.2,33.3,24.2z"/>
					</g>
					<g>
						<path class="st16" d="M33.3,16.7C33.3,16.7,33.3,16.7,33.3,16.7c-0.1,0-0.2-0.1-0.3-0.1l-1.9-2.1c-0.2-0.2-0.1-0.4,0-0.6
							c0.2-0.1,0.4-0.1,0.6,0l1.6,1.8l1.6-1.6c0.2-0.2,0.4-0.2,0.6,0c0.2,0.2,0.2,0.4,0,0.6l-1.9,1.9C33.5,16.6,33.4,16.7,33.3,16.7
							z"/>
					</g>
					<g>
						<path class="st16" d="M33.3,16.7C33.3,16.7,33.3,16.7,33.3,16.7c-0.1,0-0.2-0.1-0.3-0.1l-1.9-2.1c-0.2-0.2-0.1-0.4,0-0.6
							c0.2-0.1,0.4-0.1,0.6,0l1.6,1.8l1.6-1.6c0.2-0.2,0.4-0.2,0.6,0c0.2,0.2,0.2,0.4,0,0.6l-1.9,2C33.5,16.6,33.4,16.7,33.3,16.7z"
							/>
					</g>
					<g>
						<path class="st8" d="M31.4,23.4c-0.1,0-0.2,0-0.3-0.1c-0.2-0.2-0.2-0.4,0-0.6l1.9-2c0.1-0.1,0.2-0.1,0.3-0.1c0,0,0,0,0,0
							c0.1,0,0.2,0,0.3,0.1l1.9,1.9c0.2,0.2,0.2,0.4,0,0.6c-0.2,0.2-0.4,0.2-0.6,0l-1.6-1.6l-1.6,1.7C31.6,23.4,31.5,23.4,31.4,23.4
							z"/>
					</g>
					<g>
						<path class="st8" d="M33.3,24.2c-0.2,0-0.4-0.2-0.4-0.4V13.1c0-0.2,0.2-0.4,0.4-0.4c0.2,0,0.4,0.2,0.4,0.4v10.7
							C33.7,24,33.5,24.2,33.3,24.2z"/>
					</g>
					<g>
						<path class="st8" d="M33.3,24.2c-0.2,0-0.4-0.2-0.4-0.4V13.1c0-0.2,0.2-0.4,0.4-0.4c0.2,0,0.4,0.2,0.4,0.4v10.7
							C33.7,24,33.5,24.2,33.3,24.2z"/>
					</g>
					<g>
						<path class="st16" d="M33.3,16.7C33.3,16.7,33.3,16.7,33.3,16.7c-0.1,0-0.2-0.1-0.3-0.1l-1.9-2.1c-0.2-0.2-0.1-0.4,0-0.6
							c0.2-0.1,0.4-0.1,0.6,0l1.6,1.8l1.6-1.6c0.2-0.2,0.4-0.2,0.6,0c0.2,0.2,0.2,0.4,0,0.6l-1.9,2C33.5,16.6,33.4,16.7,33.3,16.7z"
							/>
					</g>
					<g>
						<path class="st8" d="M31.4,23.4c-0.1,0-0.2,0-0.3-0.1c-0.2-0.2-0.2-0.4,0-0.6l1.9-2c0.1-0.1,0.2-0.1,0.3-0.1c0,0,0,0,0,0
							c0.1,0,0.2,0,0.3,0.1l1.9,1.9c0.2,0.2,0.2,0.4,0,0.6c-0.2,0.2-0.4,0.2-0.6,0l-1.6-1.6l-1.6,1.7C31.6,23.4,31.5,23.4,31.4,23.4
							z"/>
					</g>
					<g>
						<path class="st8" d="M37.9,21.6c-0.1,0-0.1,0-0.2-0.1l-9.2-5.5c-0.2-0.1-0.3-0.4-0.1-0.6c0.1-0.2,0.4-0.3,0.6-0.1l9.2,5.5
							c0.2,0.1,0.3,0.4,0.1,0.6C38.1,21.5,38,21.6,37.9,21.6z"/>
					</g>
					<g>
						<path class="st8" d="M36.5,22.6c-0.2,0-0.4-0.2-0.4-0.4L36,20.3c0-0.2,0.1-0.3,0.3-0.4l1.8-0.7c0.2-0.1,0.4,0,0.5,0.2
							c0.1,0.2,0,0.4-0.2,0.5l-1.5,0.6l0.1,1.6C36.9,22.4,36.8,22.6,36.5,22.6C36.5,22.6,36.5,22.6,36.5,22.6z"/>
					</g>
					<g>
						<path class="st16" d="M28.7,17.9c-0.2,0-0.3-0.1-0.4-0.3c-0.1-0.2,0-0.4,0.2-0.5l1.5-0.6L30,15c0-0.2,0.2-0.4,0.4-0.4
							c0.2,0,0.4,0.2,0.4,0.4l0.1,1.9c0,0.2-0.1,0.3-0.3,0.4l-1.8,0.7C28.8,17.9,28.7,17.9,28.7,17.9z"/>
					</g>
					<g>
						<path class="st8" d="M28.6,21.8c-0.1,0-0.3-0.1-0.4-0.2c-0.1-0.2-0.1-0.4,0.1-0.6l9.2-5.5c0.2-0.1,0.4-0.1,0.6,0.1
							c0.1,0.2,0.1,0.4-0.1,0.6l-9.2,5.5C28.8,21.8,28.7,21.8,28.6,21.8z"/>
					</g>
					<g>
						<path class="st16" d="M38.1,18c0,0-0.1,0-0.1,0l-1.9-0.7c-0.2-0.1-0.3-0.2-0.3-0.4L35.7,15c0-0.2,0.2-0.4,0.4-0.4
							c0.2,0,0.4,0.2,0.4,0.4l0.1,1.7l1.6,0.6c0.2,0.1,0.3,0.3,0.2,0.5C38.4,17.9,38.2,18,38.1,18z"/>
					</g>
					<g>
						<path class="st8" d="M30.5,22.5c-0.2,0-0.4-0.2-0.4-0.4l0-1.6l-1.7-0.8c-0.2-0.1-0.3-0.3-0.2-0.5c0.1-0.2,0.3-0.3,0.5-0.2l2,1
							c0.1,0.1,0.2,0.2,0.2,0.4l0,1.8C30.9,22.4,30.7,22.5,30.5,22.5L30.5,22.5z"/>
					</g>
				</g>
			</g>
		</g>
		<g>
			<path class="st1" d="M17.7,36.2V17.8c0-1.5,1.2-2.7,2.7-2.7h0c1.5,0,2.7,1.2,2.7,2.7V36c2.4,1,4,3.3,4,6.1c0,3.6-2.9,6.6-6.6,6.6
				S14,45.7,14,42.1C14,39.5,15.5,37.3,17.7,36.2z"/>
			<g>
				<g>
					<path class="st17" d="M16.2,36.8V18.5c0-1.5,1.2-2.7,2.7-2.7h0c1.5,0,2.7,1.2,2.7,2.7v18.2c2.4,1,4,3.3,4,6.1
						c0,3.6-2.9,6.6-6.6,6.6s-6.6-2.9-6.6-6.6C12.5,40.1,14.1,37.9,16.2,36.8z"/>
					<path class="st51" d="M16.2,36.8V18.5c0-1.5,1.2-2.7,2.7-2.7h0c1.5,0,2.7,1.2,2.7,2.7v18.2c2.4,1,4,3.3,4,6.1
						c0,3.6-2.9,6.6-6.6,6.6s-6.6-2.9-6.6-6.6C12.5,40.1,14.1,37.9,16.2,36.8z"/>
				</g>
			</g>
		</g>
	</g>
	<g>
		<ellipse class="st8" cx="19.1" cy="42.8" rx="3.4" ry="3.4"/>
		<path class="st8" d="M19,40.6h-0.1c-0.4,0-0.8-0.3-0.8-0.8v-8.1c0-0.4,0.3-0.8,0.8-0.8H19c0.4,0,0.8,0.3,0.8,0.8v8.1
			C19.8,40.2,19.5,40.6,19,40.6z"/>
	</g>
</g>
</svg>
