<?xml version="1.0" encoding="utf-8"?>
<!-- Generator: Adobe Illustrator 22.0.0, SVG Export Plug-In . SVG Version: 6.00 Build 0)  -->
<svg version="1.1" id="Layer_1" xmlns="http://www.w3.org/2000/svg" xmlns:xlink="http://www.w3.org/1999/xlink" x="0px" y="0px"
	 viewBox="0 0 62 62" style="enable-background:new 0 0 62 62;" xml:space="preserve">
<style type="text/css">
	.st0{fill:#FFFFFF;}
	.st1{opacity:0.21;}
	.st2{fill:#1D1C1A;}
	.st3{fill:#E63D33;}
	.st4{fill:#AE202B;}
	.st5{fill:#FFF7F7;}
	.st6{opacity:0.1;}
	.st7{fill:#7393CB;}
	.st8{fill:#1C1C1A;}
	.st9{fill:#E53E33;}
	.st10{fill:#AD202B;}
	.st11{opacity:0.1;fill:#AD202B;}
	.st12{fill:#C22329;}
	.st13{opacity:0.1;fill:#C22329;}
	.st14{fill:#FDF6F6;}
	.st15{clip-path:url(#SVGID_4_);}
	.st16{fill:#DDE8F4;}
	.st17{display:none;fill:none;stroke:#1C1C1A;stroke-width:2;stroke-miterlimit:10;}
	.st18{fill:#FDF6F6;stroke:#1C1C1A;stroke-width:0.5;stroke-miterlimit:10;}
	.st19{fill:none;stroke:#1C1C1A;stroke-miterlimit:10;}
	.st20{fill:#F7E3E2;}
	.st21{opacity:0.21;fill:#1C1C1A;}
	.st22{fill:#C32228;}
	.st23{fill:#FFF7F7;stroke:#1C1C1A;stroke-width:0.15;stroke-miterlimit:10;}
	.st24{fill:#C0252A;}
	.st25{fill:#0B1C2B;}
	.st26{opacity:0.1;fill:#1C1C1A;}
	.st27{fill:#696969;}
	.st28{fill:#FFF7F7;stroke:#1C1C1A;stroke-width:0.5;stroke-miterlimit:10;}
	.st29{fill:none;}
	.st30{fill:#FFF8F9;stroke:#1D1C1A;stroke-width:0.25;stroke-miterlimit:10;}
	.st31{fill:#E63D32;}
	.st32{clip-path:url(#SVGID_12_);}
	.st33{fill:#E63D32;stroke:#1D1C1A;stroke-width:0.5;stroke-miterlimit:10;}
	.st34{fill:#E63D34;}
	.st35{fill:#2E2E2E;}
	.st36{fill:#AA202B;}
	.st37{clip-path:url(#SVGID_16_);}
	.st38{fill:#FFF8F9;}
	.st39{fill:#231F20;}
	.st40{fill:#242A3C;}
	.st41{clip-path:url(#SVGID_20_);}
	.st42{fill:none;stroke:#CDCA87;stroke-width:0.5;stroke-miterlimit:10;}
	.st43{clip-path:url(#SVGID_22_);}
	.st44{clip-path:url(#SVGID_24_);fill:#1D1C1A;}
	.st45{clip-path:url(#SVGID_26_);}
	.st46{clip-path:url(#SVGID_28_);fill:#1D1C1A;}
	.st47{fill:#FFFFFF;stroke:#1D1C1A;stroke-width:0.5;stroke-miterlimit:10;}
	.st48{fill:#D7E0E5;}
	.st49{opacity:0.5;fill:#D7E0E5;}
	.st50{clip-path:url(#SVGID_32_);}
	.st51{fill:#F6F7F7;stroke:#1C1C1A;stroke-width:0.5;stroke-miterlimit:10;}
	.st52{fill:#FFFFFF;stroke:#231F20;stroke-width:0.5;stroke-miterlimit:10;}
	.st53{fill:#D8E0E6;stroke:#1D1C1A;stroke-width:0.5;stroke-miterlimit:10;}
	.st54{clip-path:url(#SVGID_34_);}
	.st55{clip-path:url(#SVGID_36_);fill:#1D1C1A;}
	.st56{clip-path:url(#SVGID_38_);}
	.st57{clip-path:url(#SVGID_40_);fill:#1D1C1A;}
	.st58{opacity:0.1;fill:#1D1C1A;}
	.st59{clip-path:url(#SVGID_44_);}
	.st60{clip-path:url(#SVGID_46_);fill:#1D1C1A;}
	.st61{clip-path:url(#SVGID_48_);}
	.st62{clip-path:url(#SVGID_50_);fill:#1D1C1A;}
	.st63{clip-path:url(#SVGID_54_);}
	.st64{clip-path:url(#SVGID_56_);}
	.st65{clip-path:url(#SVGID_58_);fill:#1D1C1A;}
	.st66{clip-path:url(#SVGID_60_);}
	.st67{clip-path:url(#SVGID_62_);fill:#1D1C1A;}
	.st68{clip-path:url(#SVGID_66_);}
	.st69{clip-path:url(#SVGID_68_);fill:#1D1C1A;}
	.st70{clip-path:url(#SVGID_70_);}
	.st71{clip-path:url(#SVGID_72_);fill:#1D1C1A;}
	.st72{clip-path:url(#SVGID_76_);}
	.st73{clip-path:url(#SVGID_78_);}
	.st74{clip-path:url(#SVGID_80_);fill:#1D1C1A;}
	.st75{clip-path:url(#SVGID_82_);}
	.st76{clip-path:url(#SVGID_84_);fill:#1D1C1A;}
	.st77{clip-path:url(#SVGID_88_);}
	.st78{fill:#FDF6F6;stroke:#1C1C1A;stroke-width:0.25;stroke-miterlimit:10;}
	.st79{clip-path:url(#SVGID_90_);}
	.st80{fill:#D8E0E6;}
	.st81{clip-path:url(#SVGID_94_);}
	.st82{clip-path:url(#SVGID_96_);}
	.st83{clip-path:url(#SVGID_100_);}
	.st84{clip-path:url(#SVGID_102_);}
	.st85{clip-path:url(#SVGID_104_);}
	.st86{clip-path:url(#SVGID_106_);fill:#1D1C1A;}
	.st87{clip-path:url(#SVGID_108_);}
	.st88{clip-path:url(#SVGID_110_);fill:#1D1C1A;}
	.st89{clip-path:url(#SVGID_114_);}
	.st90{clip-path:url(#SVGID_116_);}
	.st91{clip-path:url(#SVGID_118_);fill:#1D1C1A;}
	.st92{clip-path:url(#SVGID_120_);}
	.st93{clip-path:url(#SVGID_122_);fill:#1D1C1A;}
	.st94{fill:#D8E0E6;stroke:#1D1C1A;stroke-width:0.25;stroke-miterlimit:10;}
</style>
<g>
	<g>
		<g>
			<g>
				<path class="st8" d="M48.5,22.9l0.7-0.1c0,0-0.1-1.2,0.3-1.5c0.4,0,1.8,0.2,2,0.4c0.2,0.2,0.5,0.7,0.4,1.1s-1.4,0.5-2.1,0.5
					c-0.7,0-1.1,0.1-1.1,0.1"/>
				<path class="st26" d="M48.5,22.9l0.7-0.1c0,0-0.1-1.2,0.3-1.5c0.4,0,1.8,0.2,2,0.4c0.2,0.2,0.5,0.7,0.4,1.1s-1.4,0.5-2.1,0.5
					c-0.7,0-1.1,0.1-1.1,0.1"/>
			</g>
			<path class="st52" d="M36.9,38.1l7-0.1c0,0,0.9-0.1,1.4,0.1s6.3-0.6,6.3-0.6l0.1,0.1c0,0,0.5,0.2,0.7-0.5c1-7-0.1-10.6-0.2-10.9
				c-0.1-0.3-1.5-1.4-1.9-1.6c-0.4-0.2-1.2-1-1.2-1s-0.2-0.3-0.5-1.1s-2-5.1-3.6-5.6c-1.5-0.4-5.6-0.8-7.6-0.8c-0.3,0-0.6,0-0.9,0
				c-1.9,0-6.2,0.3-7.6,0.8c-1.6,0.5-3.3,4.9-3.6,5.6c-0.3,0.7-0.5,1.1-0.5,1.1s-0.9,0.8-1.2,1s-1.9,1.2-1.9,1.6s-1.2,3.9-0.2,10.9
				c0.2,0.7,0.7,0.5,0.7,0.5l0.1-0.1c0,0,5.8,0.7,6.3,0.6C29,38,29.9,38,29.9,38L36.9,38.1z"/>
			<path class="st48" d="M51.4,34.5c0,0-5.9,0.6-6.4,0.7c-0.7,0.1-1.3,0.2-1.3,0.2l-6.9,0.1l-6.9-0.1c0,0-3.4-0.6-3.9-0.5
				c-0.5,0.2-3.6-0.3-3.6-0.3s-1.4-3-1.4-4.3c-0.1,1.7,0,3.9,0.4,6.7c0.3,0.2,0.8,0.4,0.8,0.4s5.8,0.7,6.3,0.6
				c0.5-0.2,1.4-0.1,1.4-0.1l6.9,0.1l6.9-0.1c0,0,0.9-0.1,1.4,0.1c0.5,0.2,6.3-0.6,6.3-0.6s0.5,0,0.7-0.1c0.1,0,0.1-0.2,0.1-0.2
				c0.4-2.8,0.5-5,0.4-6.7C52.5,31.6,51.4,34.5,51.4,34.5z"/>
			<path class="st48" d="M22.3,26.5c0,0-0.7,2.1,0.4,2.7c0.9,0.5,1.2,0.5,1.2,0.5l0.8-0.3c0,0,2,0.6,2.8,0.5
				c0.8-0.1,1.5-0.6,1.5-0.6S27.8,27.5,22.3,26.5z"/>
			<path class="st48" d="M51.5,26.5c0,0,0.7,2.1-0.4,2.7c-0.9,0.5-1.2,0.5-1.2,0.5l-0.8-0.3c0,0-2,0.6-2.8,0.5
				c-0.8-0.1-1.5-0.6-1.5-0.6S45.9,27.5,51.5,26.5z"/>
			<path class="st8" d="M52,33c0,0-3.2,0.7-3.7,1.3c-0.5,0.6-0.4,1.1-0.4,1.1l2.3-0.3c0,0,0.1,0.2,0.1,0.2
				C50.7,35.3,52.2,34.9,52,33z"/>
			<path class="st8" d="M52.3,37.3c0,0-0.1,2.3-0.9,2.3c-0.8,0-2.8,0.1-3,0c-0.2-0.1-0.7-0.5-0.7-1.5"/>
			<path class="st8" d="M28.2,17.9h17.3c0,0-0.3-0.4-0.7-1c-1.5-0.4-5.6-0.8-7.5-0.7c-0.3,0-0.6,0-0.9,0c-1.9,0-5.8,0.3-7.4,0.7
				C28.7,17.3,28.5,17.6,28.2,17.9z"/>
			<path class="st48" d="M48.2,23.5c-0.2-1.1-1.9-4.9-2.9-5.7c-0.8-0.1-3.1-0.3-5.1-0.4c-2.2-0.2-4.5-0.2-6.7,0
				c-2,0.1-4.2,0.3-5,0.4c-1,0.8-2.6,4.7-2.8,5.9c0.7,0,11.2-0.1,11.2-0.1"/>
			<g>
				<defs>
					<path id="SVGID_123_" d="M21.7,33c0,0,3.3,0.7,3.7,1.3c0.5,0.6,0.4,1.1,0.4,1.1l-2.3-0.3c0,0-0.1,0.2-0.1,0.2
						C23.1,35.3,21.6,35,21.7,33z"/>
				</defs>
				<use xlink:href="#SVGID_123_"  style="overflow:visible;fill:#1C1C1A;"/>
				<clipPath id="SVGID_2_">
					<use xlink:href="#SVGID_123_"  style="overflow:visible;"/>
				</clipPath>
			</g>
		</g>
		<g>
			<path class="st8" d="M41.5,31.4h-9c-0.1,0-0.2-0.1-0.2-0.2v0c0-0.1,0.1-0.2,0.2-0.2h9c0.1,0,0.2,0.1,0.2,0.2v0
				C41.7,31.3,41.6,31.4,41.5,31.4z"/>
			<path class="st8" d="M41.3,32.4h-8.7c-0.1,0-0.2-0.1-0.2-0.2v0c0-0.1,0.1-0.2,0.2-0.2h8.7c0.1,0,0.2,0.1,0.2,0.2v0
				C41.5,32.3,41.4,32.4,41.3,32.4z"/>
			<path class="st8" d="M41,33.5h-8.2c-0.1,0-0.2-0.1-0.2-0.2v0c0-0.1,0.1-0.2,0.2-0.2H41c0.1,0,0.2,0.1,0.2,0.2v0
				C41.3,33.4,41.2,33.5,41,33.5z"/>
		</g>
	</g>
	<g>
		<g class="st1">
			<path d="M37.4,24.3h-28c-0.1,0-0.2,0.1-0.2,0.2v2.7h0.6v0v1.7v11.9v0.1v2.8c0,0.1,0.1,0.2,0.2,0.2h27c0.1,0,0.2-0.1,0.2-0.2v-2.8
				v-0.1V28.9v-1.7l-1.2,0h1.5c0.1,0,0.2-0.1,0.2-0.2v-2.5C37.6,24.4,37.5,24.3,37.4,24.3z"/>
			<path d="M16.8,23.6h-1.4V21c0-0.1-0.1-0.2-0.2-0.2h-2.1c-0.1,0-0.2,0.1-0.2,0.2v2.6h-1.4v0.7h5.3V23.6z"/>
			<path d="M34.5,23.6H33V21c0-0.1-0.1-0.2-0.2-0.2h-2.1c-0.1,0-0.2,0.1-0.2,0.2v2.6h-1.4v0.7h5.3V23.6z"/>
		</g>
		<g>
			<rect x="14.3" y="21.9" class="st48" width="2.6" height="2.9"/>
			<rect x="32" y="21.9" class="st8" width="2.6" height="2.9"/>
			<rect x="11.2" y="28.5" class="st5" width="27" height="14.2"/>
			<rect x="10.4" y="42.6" class="st8" width="28.5" height="3.2"/>
			<rect x="11.2" y="28.5" class="st6" width="27.2" height="1.8"/>
			<rect x="10.5" y="25.5" class="st8" width="28.5" height="3"/>
			<g>
				<circle class="st48" cx="32.9" cy="36.3" r="3"/>
				<circle class="st48" cx="16.6" cy="36.3" r="3"/>
				
					<rect x="31.1" y="35.9" transform="matrix(-1 -4.568713e-11 4.568713e-11 -1 65.8999 72.5956)" class="st8" width="3.7" height="0.8"/>
				<polygon class="st8" points="14.8,35.9 16.2,35.9 16.2,34.5 17,34.5 17,35.9 18.4,35.9 18.4,36.7 17,36.7 17,38.1 16.2,38.1 
					16.2,36.7 14.8,36.7 				"/>
				<polygon class="st48" points="24.2,32.8 26,32.8 24.3,35.6 26,35.6 23.5,39.6 24.4,36.1 23,36.1 				"/>
			</g>
			<rect x="12.8" y="24.8" class="st8" width="5.6" height="0.7"/>
			<rect x="30.6" y="24.8" class="st8" width="5.6" height="0.7"/>
		</g>
	</g>
</g>
</svg>
