<?xml version="1.0" encoding="utf-8"?>
<!-- Generator: Adobe Illustrator 22.0.0, SVG Export Plug-In . SVG Version: 6.00 Build 0)  -->
<svg version="1.1" id="Layer_1" xmlns="http://www.w3.org/2000/svg" xmlns:xlink="http://www.w3.org/1999/xlink" x="0px" y="0px"
	 viewBox="0 0 62 62" style="enable-background:new 0 0 62 62;" xml:space="preserve">
<style type="text/css">
	.st0{fill:#FFFFFF;}
	.st1{opacity:0.21;}
	.st2{fill:#1D1C1A;}
	.st3{fill:#E63D33;}
	.st4{fill:#AE202B;}
	.st5{fill:#FFF7F7;}
	.st6{opacity:0.1;}
	.st7{fill:#7393CB;}
	.st8{fill:#1C1C1A;}
	.st9{fill:#E53E33;}
	.st10{fill:#AD202B;}
	.st11{opacity:0.1;fill:#AD202B;}
	.st12{fill:#C22329;}
	.st13{opacity:0.1;fill:#C22329;}
	.st14{fill:#FDF6F6;}
	.st15{clip-path:url(#SVGID_4_);}
	.st16{fill:#DDE8F4;}
	.st17{display:none;fill:none;stroke:#1C1C1A;stroke-width:2;stroke-miterlimit:10;}
	.st18{fill:#FDF6F6;stroke:#1C1C1A;stroke-width:0.5;stroke-miterlimit:10;}
	.st19{fill:none;stroke:#1C1C1A;stroke-miterlimit:10;}
	.st20{fill:#F7E3E2;}
	.st21{opacity:0.21;fill:#1C1C1A;}
	.st22{fill:#C32228;}
	.st23{fill:#FFF7F7;stroke:#1C1C1A;stroke-width:0.15;stroke-miterlimit:10;}
	.st24{fill:#C0252A;}
	.st25{fill:#0B1C2B;}
	.st26{opacity:0.1;fill:#1C1C1A;}
	.st27{fill:#696969;}
	.st28{fill:#FFF7F7;stroke:#1C1C1A;stroke-width:0.5;stroke-miterlimit:10;}
	.st29{fill:none;}
	.st30{fill:#FFF8F9;stroke:#1D1C1A;stroke-width:0.25;stroke-miterlimit:10;}
	.st31{fill:#E63D32;}
	.st32{clip-path:url(#SVGID_12_);}
	.st33{fill:#E63D32;stroke:#1D1C1A;stroke-width:0.5;stroke-miterlimit:10;}
	.st34{fill:#E63D34;}
	.st35{fill:#2E2E2E;}
	.st36{fill:#AA202B;}
	.st37{clip-path:url(#SVGID_16_);}
	.st38{fill:#FFF8F9;}
	.st39{fill:#231F20;}
	.st40{fill:#242A3C;}
	.st41{clip-path:url(#SVGID_20_);}
	.st42{fill:none;stroke:#CDCA87;stroke-width:0.5;stroke-miterlimit:10;}
	.st43{clip-path:url(#SVGID_22_);}
	.st44{clip-path:url(#SVGID_24_);fill:#1D1C1A;}
	.st45{clip-path:url(#SVGID_26_);}
	.st46{clip-path:url(#SVGID_28_);fill:#1D1C1A;}
	.st47{fill:#FFFFFF;stroke:#1D1C1A;stroke-width:0.5;stroke-miterlimit:10;}
	.st48{fill:#D7E0E5;}
	.st49{opacity:0.5;fill:#D7E0E5;}
	.st50{clip-path:url(#SVGID_32_);}
	.st51{fill:#F6F7F7;stroke:#1C1C1A;stroke-width:0.5;stroke-miterlimit:10;}
	.st52{fill:#FFFFFF;stroke:#231F20;stroke-width:0.5;stroke-miterlimit:10;}
	.st53{fill:#D8E0E6;stroke:#1D1C1A;stroke-width:0.5;stroke-miterlimit:10;}
	.st54{clip-path:url(#SVGID_34_);}
	.st55{clip-path:url(#SVGID_36_);fill:#1D1C1A;}
	.st56{clip-path:url(#SVGID_38_);}
	.st57{clip-path:url(#SVGID_40_);fill:#1D1C1A;}
	.st58{opacity:0.1;fill:#1D1C1A;}
	.st59{clip-path:url(#SVGID_44_);}
	.st60{clip-path:url(#SVGID_46_);fill:#1D1C1A;}
	.st61{clip-path:url(#SVGID_48_);}
	.st62{clip-path:url(#SVGID_50_);fill:#1D1C1A;}
	.st63{clip-path:url(#SVGID_54_);}
	.st64{clip-path:url(#SVGID_56_);}
	.st65{clip-path:url(#SVGID_58_);fill:#1D1C1A;}
	.st66{clip-path:url(#SVGID_60_);}
	.st67{clip-path:url(#SVGID_62_);fill:#1D1C1A;}
	.st68{clip-path:url(#SVGID_66_);}
	.st69{clip-path:url(#SVGID_68_);fill:#1D1C1A;}
	.st70{clip-path:url(#SVGID_70_);}
	.st71{clip-path:url(#SVGID_72_);fill:#1D1C1A;}
	.st72{clip-path:url(#SVGID_76_);}
	.st73{clip-path:url(#SVGID_78_);}
	.st74{clip-path:url(#SVGID_80_);fill:#1D1C1A;}
	.st75{clip-path:url(#SVGID_82_);}
	.st76{clip-path:url(#SVGID_84_);fill:#1D1C1A;}
	.st77{clip-path:url(#SVGID_88_);}
	.st78{fill:#FDF6F6;stroke:#1C1C1A;stroke-width:0.25;stroke-miterlimit:10;}
	.st79{clip-path:url(#SVGID_90_);}
	.st80{fill:#D8E0E6;}
	.st81{clip-path:url(#SVGID_94_);}
	.st82{clip-path:url(#SVGID_96_);}
	.st83{clip-path:url(#SVGID_100_);}
	.st84{clip-path:url(#SVGID_102_);}
	.st85{clip-path:url(#SVGID_104_);}
	.st86{clip-path:url(#SVGID_106_);fill:#1D1C1A;}
	.st87{clip-path:url(#SVGID_108_);}
	.st88{clip-path:url(#SVGID_110_);fill:#1D1C1A;}
	.st89{clip-path:url(#SVGID_114_);}
	.st90{clip-path:url(#SVGID_116_);}
	.st91{clip-path:url(#SVGID_118_);fill:#1D1C1A;}
	.st92{clip-path:url(#SVGID_120_);}
	.st93{clip-path:url(#SVGID_122_);fill:#1D1C1A;}
	.st94{fill:#D8E0E6;stroke:#1D1C1A;stroke-width:0.25;stroke-miterlimit:10;}
</style>
<g>
	<g>
		<g>
			<path class="st48" d="M35.3,21.8l0.8-2.4l6.3,2.1L41.7,24c-0.2,0.5-0.7,0.8-1.2,0.6L36,23.1C35.4,22.9,35.2,22.4,35.3,21.8z"/>
			<path class="st8" d="M53.2,20.9l7.8,2.6c0.5,0.2,0.7,0.7,0.6,1.1l-0.8,2.4c-0.2,0.5-0.7,0.7-1.1,0.6L51.9,25L53.2,20.9z"/>
			<path class="st8" d="M25.1,24.1l0.4-1.1c0.2-0.7,1-1,1.6-0.8l20.8,7c0.7,0.2,1,1,0.8,1.6l-0.4,1.1c-0.2,0.7-1,1-1.6,0.8l-20.8-7
				C25.3,25.5,24.9,24.8,25.1,24.1z"/>
			<polygon class="st48" points="32.9,22.1 28.5,22.6 46.7,28.7 43.5,25.6 			"/>
			<path class="st8" d="M58.2,27.9l-9.9-3.3c-1.2-0.4-1.9-1.8-1.5-3l0.4-1.2c0.4-1.2,1.8-1.9,3-1.5l9.9,3.3L58.2,27.9z"/>
			<path class="st48" d="M49.4,25l-14.3-4.8c-1.3-0.4-2-1.9-1.6-3.2l0.8-2.3c0.4-1.3,1.9-2,3.2-1.6L51,17.7c0.4,0.1,0.7,0.6,0.5,1.1
				L49.4,25z"/>
		</g>
	</g>
	<g>
		<g>
			<defs>
				<path id="SVGID_115_" d="M5.7,44.9c0-3.1,2.5-5,5.1-4.9c2.4,0.1,4,1.9,4.4,3.5c0.1,0.3,0.1,0.6,0.2,0.9L5.7,44.9z"/>
			</defs>
			<clipPath id="SVGID_2_">
				<use xlink:href="#SVGID_115_"  style="overflow:visible;"/>
			</clipPath>
			<g style="clip-path:url(#SVGID_2_);">
				<defs>
					<path id="SVGID_117_" d="M5.8,45.5C5.8,45.5,5.8,45.5,5.8,45.5l0-2c0-3.1,2.5-5,5.1-4.9c2.4,0.1,4,1.9,4.4,3.5
						c0.3,1.2-0.1,3.4-0.1,3.4L5.8,45.5z"/>
				</defs>
				<clipPath id="SVGID_4_">
					<use xlink:href="#SVGID_117_"  style="overflow:visible;"/>
				</clipPath>
				<path style="clip-path:url(#SVGID_4_);fill:#1D1C1A;" d="M5.8,43.5V45l9.7-0.5c0.1-0.5,0.1-0.9,0.1-1.4c0-0.3,0-0.6-0.1-1
					c-0.3-2.7-2.4-4.6-4.6-4.6c-1.4,0-2.6,0.7-3.6,1.8C6.4,40.3,5.8,41.8,5.8,43.5z"/>
			</g>
		</g>
		<g>
			<defs>
				<path id="SVGID_119_" d="M38.5,44.8c0-3.1,2.5-5,5.1-4.9c2.4,0.1,4,1.9,4.4,3.5c0.1,0.3,0.1,0.6,0.2,0.9L38.5,44.8z"/>
			</defs>
			<clipPath id="SVGID_6_">
				<use xlink:href="#SVGID_119_"  style="overflow:visible;"/>
			</clipPath>
			<g style="clip-path:url(#SVGID_6_);">
				<defs>
					<path id="SVGID_121_" d="M38.6,45.4C38.6,45.4,38.6,45.4,38.6,45.4l0-2c0-3.1,2.5-5,5.1-4.9c2.4,0.1,4,1.9,4.4,3.5
						c0.3,1.2-0.1,3.4-0.1,3.4L38.6,45.4z"/>
				</defs>
				<clipPath id="SVGID_8_">
					<use xlink:href="#SVGID_121_"  style="overflow:visible;"/>
				</clipPath>
				<path style="clip-path:url(#SVGID_8_);fill:#1D1C1A;" d="M38.5,43.4v1.5l9.7-0.5c0.1-0.5,0.1-0.9,0.1-1.4c0-0.3,0-0.6-0.1-1
					c-0.3-2.7-2.4-4.6-4.6-4.6c-1.4,0-2.6,0.7-3.6,1.8C39.2,40.2,38.5,41.7,38.5,43.4z"/>
			</g>
		</g>
		<path class="st1" d="M13.6,32.4 M16.3,31.3 M17.1,31c-0.2,0.1-0.4,0.2-0.7,0.2C16.7,31.2,16.9,31.1,17.1,31z"/>
		<path class="st52" d="M54.4,41L54.4,41c0.5-1.4-0.1-2.2-1.5-3.1s-4-1.8-6.7-2.5c-2.2-0.5-4.7-0.7-5.6-0.8c-0.2,0-0.5,0.1-1,0.2
			c-0.9,0.3-2.3-0.3-2.8-0.7c-0.5-0.4-4.6-3.1-7.3-4.3c-1.3-0.4-2.4-0.7-3.4-0.7c-4.6-0.3-7.3,0.5-9.4,1.1c0,0,0,0,0,0
			c-1.8,0.6-5.9,2.1-8.1,3.4l-1.3-0.4c-1,0.3-2,0.3-2.7,0.4c-0.3,0-0.8,0-1.2,0c-0.6,0-1.2,0.5-1.4,1.2c0,0.2-0.1,0.4-0.2,0.5
			l-0.6,1.5c-0.1,0.1-0.1,0.3-0.2,0.4c-0.6,1.4-0.2,3.1-0.2,3.1c-0.4,0.5-0.7,1.2-0.3,2.3c0.3,1.1,1,2.3,1,2.3
			c2.1,1.1,4.1,1.2,4.1,1.2l0.1,0c-0.1-0.8-0.2-1.4,0-2.1c0.4-2.2,2.5-3.9,4.9-3.9c2.5,0.1,4.6,2,4.7,4.7v1.8l0,0L38.5,47
			c0,0,0,0,0,0l-0.1-2c0-3.1,2.5-5,5.1-4.9c2.4,0.1,4,1.9,4.4,3.5c0.3,1.2,0.3,2.2-0.2,3.4c0,0,0.1,0,0.1,0c2.7-0.3,3.9-0.6,5-1.1
			c1.1-0.5,1.5-1.6,1.5-1.6S54.3,41.2,54.4,41z"/>
		<path class="st48" d="M14.6,42.7c0.3,0,0.5,0,0.5,0L38.4,43c0,0,0,0,0,0l0.3,0c-0.2,0.6-0.4,1.3-0.4,2l0,1.8l-23.2-0.2
			c0,0,0,0-0.1,0v-1.8C15.1,44.1,14.9,43.4,14.6,42.7z"/>
		<path class="st48" d="M48.3,44.3c0-0.2-0.2-0.9-0.3-1.3c2.5-0.2,3.9-0.6,4.9-1.1c1-0.5,0.3,0,0.4-0.1c0,0,0.1,0,0.1,0
			c0,0.2,1-1,0.9-0.8l0,0c-0.1,0.1-0.1,0.1-0.2,0.2c-0.5,0.5-1.2,1.2-1.4,1.3l0,0c0,0,0,0,0,0l0.8,1.6c0,0,0.3,0.3,0.8-0.2l0,0.3
			c0,0-0.1,0.4-0.5,0.8c-0.2,0.2-0.5,0.5-0.9,0.7c-1.1,0.5-2.2,0.8-4.8,1c0,0,0,0,0,0l-0.2,0C48.3,46,48.5,45.4,48.3,44.3z"/>
		<path class="st48" d="M1.6,44.7c0,0-0.6-1.1-0.9-2.2c-0.4-1.1-0.1-1.8,0.3-2.2c0,0-0.1-0.3-0.1-0.9c0,0,0,0,0,0
			c0.4,1,1.2,1.7,2.1,2.1c1.4,0.5,2.5,0.6,2.5,0.6l0.1,0c0.1,0,0.6,0.1,0.7,0.1c-0.3,0.5-0.7,1.1-0.8,1.9c-0.1,0.6-0.1,1.3,0,1.8
			l-0.1,0C5.4,45.9,3.6,45.8,1.6,44.7z"/>
		<path class="st48" d="M37.3,36c0,0-17.9-0.3-26.8-1.8c0,0,8.1-4.3,14.1-4C30.6,30.5,32.8,32.4,37.3,36z"/>
		<path class="st2" d="M36.9,34.1c-0.5-0.4-4.6-3.1-7.3-4.3c4.8,1.5,10.8,4.7,10.8,4.7s0.1,0,0.3,0c-0.2,0-0.5,0.1-1,0.2
			C38.8,35.1,37.4,34.5,36.9,34.1z"/>
		<path class="st2" d="M7.3,33.1C7.5,33.1,7.8,33,8,32.9c1.2-0.4,6.5-2.2,8.7-2.8c-1.8,0.6-5.9,2.1-8.1,3.4L7.3,33.1z"/>
		<path class="st49" d="M4.4,36.4c2.2,0.4,0.7,0.8,0.5,0.9s-0.7,0.4-0.7,0.4s-1.3,0.1-2.1,0c-0.5-0.1-0.8-0.2-0.9-0.4
			c0.2-0.5,0.6-1.4,0.8-1.9C2.2,35.8,2.8,36.1,4.4,36.4z"/>
		<g>
			<ellipse class="st2" cx="43.3" cy="45.1" rx="3.9" ry="3.9"/>
			<ellipse class="st5" cx="43.3" cy="45.1" rx="3.1" ry="3.1"/>
			<ellipse class="st2" cx="43.3" cy="45.1" rx="1" ry="1"/>
			<path class="st6" d="M47.2,45.1c0,0.4-0.1,0.7-0.1,1c-0.5-1.7-2-2.9-3.8-2.9s-3.4,1.2-3.8,2.9c-0.1-0.3-0.1-0.7-0.1-1
				c0-2.2,1.8-3.9,3.9-3.9C45.5,41.2,47.2,42.9,47.2,45.1z"/>
		</g>
		<g>
			<ellipse class="st2" cx="10.4" cy="45.1" rx="3.9" ry="3.9"/>
			<ellipse class="st5" cx="10.4" cy="45.1" rx="3.1" ry="3.1"/>
			<ellipse class="st2" cx="10.4" cy="45.1" rx="1" ry="1"/>
			<path class="st6" d="M14.3,45.1c0,0.4-0.1,0.7-0.1,1c-0.5-1.7-2-2.9-3.8-2.9S7,44.5,6.6,46.1c-0.1-0.3-0.1-0.7-0.1-1
				c0-2.2,1.8-3.9,3.9-3.9C12.6,41.2,14.3,42.9,14.3,45.1z"/>
		</g>
		<path class="st49" d="M49.5,37.3c0,0-1.3-0.4-0.9,0.5c0.5,0.9,2.1,2.6,3.1,2.6c1.2,0,1.8-0.1,1.6-0.6C53,38.8,51.1,37.7,49.5,37.3
			z"/>
		<path class="st48" d="M54.3,41.1l0.1,3.2c0,0,0.1-0.2,0,0.1c-0.2,0.4-0.5,0.8-0.5,0.8c-0.1,0.1-0.4-0.3-0.5-0.5l-1.2-1.8
			c-0.2-0.2-0.2-0.5,0-0.6L54.3,41.1z"/>
		<g>
			<path class="st2" d="M35.7,33.7l-0.7,0c-0.2,0-0.5,0.1-0.5,0.4c0,0.2,0,0.8,0,0.8c0,0.3,0.1,0.5,0.3,0.5l1.3,0.1l0.1,0.6l0.7,0.1
				c0,0-0.1-1.4-0.9-2.2C36,33.8,35.9,33.7,35.7,33.7z"/>
			<path class="st58" d="M35.7,33.7l-0.7,0c-0.2,0-0.5,0.1-0.5,0.4c0,0.2,0,0.8,0,0.8c0,0.3,0.1,0.5,0.3,0.5l1.3,0.1l0.1,0.6l0.7,0
				c0,0-0.1-1.3-0.8-2.2C36,33.8,35.9,33.7,35.7,33.7z"/>
		</g>
	</g>
	<g>
		<path class="st30" d="M12.1,29.3l0.5,0.2l1.1,0.5c0.2,0.1,0.5,0.3,0.7,0.5c0.1,0.1,0.2,0.3,0.3,0.4l0.9,1.5c0.1,0.1,0.3,0.1,0.3,0
			l0.6-1.4c0.1-0.3,0.3-0.5,0.4-0.7c0.2-0.2,0.4-0.4,0.7-0.6l0.4-0.2l0.9-0.6c0.1-0.1,0.1-0.3,0-0.3l-1.5-0.7
			c-0.5-0.2-0.9-0.6-1.2-1l-0.9-1.4c-0.1-0.1-0.3-0.1-0.3,0l-0.7,1.6c-0.2,0.4-0.5,0.8-0.9,1L12.1,29C12,29.1,12,29.3,12.1,29.3z"/>
		<path class="st30" d="M9.5,23.3l1,0.5c0.3,0.1,0.5,0.3,0.6,0.5l0.4,0.6l0.2,0.3c0,0.1,0.2,0.1,0.2,0l0-0.1l0.4-0.8
			c0-0.1,0.1-0.1,0.1-0.2c0.2-0.3,0.4-0.5,0.6-0.7l0.8-0.5c0.1,0,0.1-0.2,0-0.2l-0.9-0.4c-0.3-0.1-0.6-0.4-0.7-0.6l-0.5-0.9
			c0-0.1-0.2-0.1-0.2,0l-0.5,1c-0.1,0.3-0.3,0.5-0.6,0.6l-0.7,0.4l-0.3,0.2C9.4,23.1,9.4,23.3,9.5,23.3z"/>
	</g>
	<path class="st30" d="M43.4,35.8l1,0.5c0.3,0.1,0.5,0.3,0.6,0.5l0.4,0.6l0.2,0.3c0,0.1,0.2,0.1,0.2,0l0-0.1l0.4-0.8
		c0-0.1,0.1-0.1,0.1-0.2c0.2-0.3,0.4-0.5,0.6-0.7l0.8-0.5c0.1,0,0.1-0.2,0-0.2l-0.9-0.4c-0.3-0.1-0.6-0.4-0.7-0.6l-0.5-0.9
		c0-0.1-0.2-0.1-0.2,0l-0.5,1c-0.1,0.3-0.3,0.5-0.6,0.6l-0.7,0.4l-0.3,0.2C43.4,35.6,43.4,35.7,43.4,35.8z"/>
</g>
</svg>
