<?xml version="1.0" encoding="utf-8"?>
<!-- Generator: Adobe Illustrator 22.0.0, SVG Export Plug-In . SVG Version: 6.00 Build 0)  -->
<svg version="1.1" id="Layer_1" xmlns="http://www.w3.org/2000/svg" xmlns:xlink="http://www.w3.org/1999/xlink" x="0px" y="0px"
	 viewBox="0 0 62 62" style="enable-background:new 0 0 62 62;" xml:space="preserve">
<style type="text/css">
	.st0{fill:#FFFFFF;}
	.st1{opacity:0.21;}
	.st2{fill:#1D1C1A;}
	.st3{fill:#E63D33;}
	.st4{fill:#AE202B;}
	.st5{fill:#FFF7F7;}
	.st6{opacity:0.1;}
	.st7{fill:#7393CB;}
	.st8{fill:#1C1C1A;}
	.st9{fill:#E53E33;}
	.st10{fill:#AD202B;}
	.st11{opacity:0.1;fill:#AD202B;}
	.st12{fill:#C22329;}
	.st13{opacity:0.1;fill:#C22329;}
	.st14{fill:#FDF6F6;}
	.st15{clip-path:url(#SVGID_4_);}
	.st16{fill:#DDE8F4;}
	.st17{display:none;fill:none;stroke:#1C1C1A;stroke-width:2;stroke-miterlimit:10;}
	.st18{fill:#FDF6F6;stroke:#1C1C1A;stroke-width:0.5;stroke-miterlimit:10;}
	.st19{fill:none;stroke:#1C1C1A;stroke-miterlimit:10;}
	.st20{fill:#F7E3E2;}
	.st21{opacity:0.21;fill:#1C1C1A;}
	.st22{fill:#C32228;}
	.st23{fill:#FFF7F7;stroke:#1C1C1A;stroke-width:0.15;stroke-miterlimit:10;}
	.st24{fill:#C0252A;}
	.st25{fill:#0B1C2B;}
	.st26{opacity:0.1;fill:#1C1C1A;}
	.st27{fill:#696969;}
	.st28{fill:#FFF7F7;stroke:#1C1C1A;stroke-width:0.5;stroke-miterlimit:10;}
	.st29{fill:none;}
	.st30{fill:#FFF8F9;stroke:#1D1C1A;stroke-width:0.25;stroke-miterlimit:10;}
	.st31{fill:#E63D32;}
	.st32{clip-path:url(#SVGID_12_);}
	.st33{fill:#E63D32;stroke:#1D1C1A;stroke-width:0.5;stroke-miterlimit:10;}
	.st34{fill:#E63D34;}
	.st35{fill:#2E2E2E;}
	.st36{fill:#AA202B;}
	.st37{clip-path:url(#SVGID_16_);}
	.st38{fill:#FFF8F9;}
	.st39{fill:#231F20;}
	.st40{fill:#242A3C;}
	.st41{clip-path:url(#SVGID_20_);}
	.st42{fill:none;stroke:#CDCA87;stroke-width:0.5;stroke-miterlimit:10;}
	.st43{clip-path:url(#SVGID_22_);}
	.st44{clip-path:url(#SVGID_24_);fill:#1D1C1A;}
	.st45{clip-path:url(#SVGID_26_);}
	.st46{clip-path:url(#SVGID_28_);fill:#1D1C1A;}
	.st47{fill:#FFFFFF;stroke:#1D1C1A;stroke-width:0.5;stroke-miterlimit:10;}
	.st48{fill:#D7E0E5;}
	.st49{opacity:0.5;fill:#D7E0E5;}
	.st50{clip-path:url(#SVGID_32_);}
	.st51{fill:#F6F7F7;stroke:#1C1C1A;stroke-width:0.5;stroke-miterlimit:10;}
	.st52{fill:#FFFFFF;stroke:#231F20;stroke-width:0.5;stroke-miterlimit:10;}
	.st53{fill:#D8E0E6;stroke:#1D1C1A;stroke-width:0.5;stroke-miterlimit:10;}
	.st54{clip-path:url(#SVGID_34_);}
	.st55{clip-path:url(#SVGID_36_);fill:#1D1C1A;}
	.st56{clip-path:url(#SVGID_38_);}
	.st57{clip-path:url(#SVGID_40_);fill:#1D1C1A;}
	.st58{opacity:0.1;fill:#1D1C1A;}
	.st59{clip-path:url(#SVGID_44_);}
	.st60{clip-path:url(#SVGID_46_);fill:#1D1C1A;}
	.st61{clip-path:url(#SVGID_48_);}
	.st62{clip-path:url(#SVGID_50_);fill:#1D1C1A;}
	.st63{clip-path:url(#SVGID_54_);}
	.st64{clip-path:url(#SVGID_56_);}
	.st65{clip-path:url(#SVGID_58_);fill:#1D1C1A;}
	.st66{clip-path:url(#SVGID_60_);}
	.st67{clip-path:url(#SVGID_62_);fill:#1D1C1A;}
	.st68{clip-path:url(#SVGID_66_);}
	.st69{clip-path:url(#SVGID_68_);fill:#1D1C1A;}
	.st70{clip-path:url(#SVGID_70_);}
	.st71{clip-path:url(#SVGID_72_);fill:#1D1C1A;}
	.st72{clip-path:url(#SVGID_76_);}
	.st73{clip-path:url(#SVGID_78_);}
	.st74{clip-path:url(#SVGID_80_);fill:#1D1C1A;}
	.st75{clip-path:url(#SVGID_82_);}
	.st76{clip-path:url(#SVGID_84_);fill:#1D1C1A;}
	.st77{clip-path:url(#SVGID_88_);}
	.st78{fill:#FDF6F6;stroke:#1C1C1A;stroke-width:0.25;stroke-miterlimit:10;}
	.st79{clip-path:url(#SVGID_90_);}
	.st80{fill:#D8E0E6;}
	.st81{clip-path:url(#SVGID_94_);}
	.st82{clip-path:url(#SVGID_96_);}
	.st83{clip-path:url(#SVGID_100_);}
	.st84{clip-path:url(#SVGID_102_);}
	.st85{clip-path:url(#SVGID_104_);}
	.st86{clip-path:url(#SVGID_106_);fill:#1D1C1A;}
	.st87{clip-path:url(#SVGID_108_);}
	.st88{clip-path:url(#SVGID_110_);fill:#1D1C1A;}
	.st89{clip-path:url(#SVGID_114_);}
	.st90{clip-path:url(#SVGID_116_);}
	.st91{clip-path:url(#SVGID_118_);fill:#1D1C1A;}
	.st92{clip-path:url(#SVGID_120_);}
	.st93{clip-path:url(#SVGID_122_);fill:#1D1C1A;}
	.st94{fill:#D8E0E6;stroke:#1D1C1A;stroke-width:0.25;stroke-miterlimit:10;}
</style>
<g>
	<g>
		<g>
			<defs>
				<path id="SVGID_103_" d="M9.1,41.3c0-3.2,2.6-5,5.1-4.9c2.4,0.1,4,1.9,4.4,3.5c0.1,0.3,0.1,0.6,0.2,1L9.1,41.3z"/>
			</defs>
			<clipPath id="SVGID_2_">
				<use xlink:href="#SVGID_103_"  style="overflow:visible;"/>
			</clipPath>
			<g style="clip-path:url(#SVGID_2_);">
				<defs>
					<path id="SVGID_105_" d="M9.2,41.9C9.2,41.9,9.2,41.9,9.2,41.9l0-2c0-3.2,2.6-5,5.1-4.9c2.4,0.1,4,1.9,4.4,3.5
						c0.3,1.2-0.1,3.4-0.1,3.4L9.2,41.9z"/>
				</defs>
				<clipPath id="SVGID_4_">
					<use xlink:href="#SVGID_105_"  style="overflow:visible;"/>
				</clipPath>
				<path style="clip-path:url(#SVGID_4_);fill:#1D1C1A;" d="M9.2,39.9v1.5l9.7-0.5C19,40.4,19,40,19,39.5c0-0.3,0-0.7-0.1-1
					c-0.3-2.7-2.4-4.7-4.7-4.7c-1.4,0-2.7,0.7-3.6,1.8C9.8,36.7,9.2,38.2,9.2,39.9z"/>
			</g>
		</g>
		<g>
			<defs>
				<path id="SVGID_107_" d="M42,41.2c0-3.2,2.6-5,5.1-4.9c2.4,0.1,4,1.9,4.4,3.5c0.1,0.3,0.1,0.6,0.2,1L42,41.2z"/>
			</defs>
			<clipPath id="SVGID_6_">
				<use xlink:href="#SVGID_107_"  style="overflow:visible;"/>
			</clipPath>
			<g style="clip-path:url(#SVGID_6_);">
				<defs>
					<path id="SVGID_109_" d="M42.1,41.8C42.1,41.8,42.2,41.8,42.1,41.8l0-2c0-3.2,2.6-5,5.1-4.9c2.4,0.1,4,1.9,4.4,3.5
						c0.3,1.2-0.1,3.4-0.1,3.4L42.1,41.8z"/>
				</defs>
				<clipPath id="SVGID_8_">
					<use xlink:href="#SVGID_109_"  style="overflow:visible;"/>
				</clipPath>
				<path style="clip-path:url(#SVGID_8_);fill:#1D1C1A;" d="M42.1,39.8v1.5l9.7-0.5c0.1-0.5,0.1-0.9,0.1-1.4c0-0.3,0-0.7-0.1-1
					c-0.3-2.7-2.4-4.7-4.7-4.7c-1.4,0-2.7,0.7-3.6,1.8C42.7,36.6,42.1,38.1,42.1,39.8z"/>
			</g>
		</g>
		<path class="st1" d="M17.1,28.7 M19.7,27.7 M20.6,27.4c-0.2,0.1-0.4,0.2-0.7,0.2C20.2,27.5,20.4,27.5,20.6,27.4z"/>
		<path class="st47" d="M58.1,37.4L58.1,37.4c0.5-1.4-0.1-2.3-1.5-3.1c-1.4-0.9-4-1.8-6.7-2.5c-2.2-0.5-4.7-0.7-5.6-0.8
			c-0.2,0-0.5,0.1-1,0.2c-0.9,0.3-2.3-0.3-2.8-0.7c-0.5-0.4-4.6-3.1-7.3-4.3c-1.3-0.4-2.4-0.7-3.4-0.7c-4.6-0.3-7.3,0.5-9.5,1.1
			c0,0,0,0,0,0c-1.8,0.6-5.9,2.1-8.2,3.4l-1.3-0.4c-1,0.3-2,0.3-2.7,0.4c-0.3,0-0.8,0-1.2,0c-0.6,0-1.2,0.5-1.4,1.2
			c0,0.2-0.1,0.4-0.2,0.5l-0.6,1.5c-0.1,0.1-0.1,0.3-0.2,0.4c-0.6,1.4-0.2,3.1-0.2,3.1c-0.4,0.5-0.7,1.2-0.3,2.3
			c0.3,1.1,1,2.3,1,2.3C7,42.3,9,42.5,9,42.5l0.1,0c-0.1-0.8-0.2-1.4,0-2.1c0.5-2.2,2.5-3.9,5-3.9c2.5,0.1,4.6,2,4.7,4.8v1.8l0,0
			l23.4,0.3c0,0,0,0,0,0l-0.1-2c0-3.2,2.6-5,5.1-4.9c2.4,0.1,4,1.9,4.4,3.5c0.3,1.2,0.3,2.2-0.2,3.4c0,0,0.1,0,0.1,0
			c2.7-0.3,3.9-0.6,5.1-1.1c1.1-0.5,1.5-1.6,1.5-1.6S57.9,37.6,58.1,37.4z"/>
		<path class="st48" d="M18.1,39.1c0.3,0,0.6,0,0.6,0L42,39.4c0,0,0,0,0,0l0.3,0c-0.2,0.6-0.4,1.3-0.4,2l0,1.8l-23.3-0.2
			c0,0,0,0-0.1,0v-1.8C18.6,40.5,18.3,39.8,18.1,39.1z"/>
		<path class="st48" d="M51.9,40.7c0-0.2-0.2-0.9-0.3-1.3c2.5-0.2,3.9-0.6,4.9-1.1c1-0.5,0.3,0,0.4-0.1c0,0,0.1,0,0.1,0
			c0,0.2,1-1,0.9-0.8l0,0c-0.1,0.1-0.1,0.1-0.2,0.2c-0.5,0.5-1.2,1.2-1.4,1.3l0,0c0,0,0,0,0,0l0.8,1.6c0,0,0.3,0.3,0.8-0.2l0,0.3
			c0,0-0.1,0.4-0.5,0.8c-0.2,0.2-0.5,0.5-0.9,0.7c-1.1,0.5-2.2,0.8-4.8,1c0,0,0,0,0,0l-0.2,0C51.9,42.4,52.1,41.8,51.9,40.7z"/>
		<path class="st48" d="M4.9,41.2c0,0-0.6-1.1-0.9-2.2c-0.4-1.1-0.1-1.8,0.3-2.3c0,0-0.1-0.3-0.1-0.9c0,0,0,0,0,0
			c0.4,1,1.2,1.8,2.1,2.1c1.4,0.5,2.6,0.6,2.6,0.6l0.1,0c0.1,0,0.6,0.1,0.7,0.1c-0.3,0.5-0.7,1.1-0.8,1.9c-0.1,0.6-0.1,1.3,0,1.8
			l-0.1,0C8.8,42.3,7,42.2,4.9,41.2z"/>
		<path class="st48" d="M40.9,32.3c0,0-18-0.3-26.9-1.8c0,0,8.1-4.3,14.1-4C34.1,26.8,36.3,28.8,40.9,32.3z"/>
		<path class="st2" d="M40.5,30.5c-0.5-0.4-4.6-3.1-7.3-4.3c4.8,1.5,10.8,4.7,10.8,4.7s0.1,0,0.3,0c-0.2,0-0.5,0.1-1,0.2
			C42.4,31.5,41,30.9,40.5,30.5z"/>
		<path class="st2" d="M10.7,29.5c0.2-0.1,0.5-0.1,0.7-0.2c1.2-0.4,6.5-2.2,8.8-2.8c-1.8,0.6-5.9,2.1-8.2,3.4L10.7,29.5z"/>
		<path class="st49" d="M7.8,32.8c2.2,0.4,0.7,0.8,0.5,0.9c-0.2,0.1-0.7,0.4-0.7,0.4s-1.3,0.1-2.1,0C5,34,4.6,33.8,4.6,33.7
			c0.2-0.5,0.6-1.4,0.8-1.9C5.6,32.2,6.2,32.5,7.8,32.8z"/>
		<g>
			<ellipse class="st2" cx="46.9" cy="41.5" rx="4" ry="3.9"/>
			<ellipse class="st5" cx="46.9" cy="41.5" rx="3.1" ry="3.1"/>
			<ellipse class="st2" cx="46.9" cy="41.5" rx="1" ry="1"/>
			<path class="st6" d="M50.8,41.5c0,0.4-0.1,0.7-0.1,1c-0.5-1.7-2-2.9-3.8-2.9s-3.4,1.2-3.8,2.9c-0.1-0.3-0.1-0.7-0.1-1
				c0-2.2,1.8-3.9,4-3.9C49.1,37.6,50.8,39.3,50.8,41.5z"/>
		</g>
		<g>
			<ellipse class="st2" cx="13.8" cy="41.5" rx="4" ry="3.9"/>
			<ellipse class="st5" cx="13.8" cy="41.5" rx="3.1" ry="3.1"/>
			<ellipse class="st2" cx="13.8" cy="41.5" rx="1" ry="1"/>
			<path class="st6" d="M17.8,41.5c0,0.4-0.1,0.7-0.1,1c-0.5-1.7-2-2.9-3.8-2.9s-3.4,1.2-3.8,2.9c-0.1-0.3-0.1-0.7-0.1-1
				c0-2.2,1.8-3.9,4-3.9C16,37.6,17.8,39.3,17.8,41.5z"/>
		</g>
		<path class="st49" d="M53.1,33.6c0,0-1.3-0.4-0.9,0.5c0.5,0.9,2.1,2.6,3.1,2.6c1.2,0,1.8-0.1,1.7-0.6C56.6,35.2,54.7,34,53.1,33.6
			z"/>
		<path class="st48" d="M57.9,37.5l0.1,3.2c0,0,0.1-0.2,0,0.1c-0.2,0.4-0.5,0.8-0.5,0.8c-0.1,0.1-0.4-0.3-0.5-0.5l-1.2-1.8
			c-0.2-0.2-0.2-0.5,0-0.6L57.9,37.5z"/>
		<g>
			<path class="st7" d="M39.2,30.1l-0.7,0c-0.2,0-0.5,0.1-0.5,0.4c0,0.2,0,0.9,0,0.9c0,0.3,0.1,0.5,0.3,0.5l1.3,0.1l0.2,0.6l0.7,0.1
				c0,0-0.1-1.4-0.9-2.3C39.6,30.2,39.4,30.1,39.2,30.1z"/>
			<path class="st6" d="M39.2,30.1l-0.7,0c-0.2,0-0.5,0.1-0.5,0.4c0,0.2,0,0.9,0,0.9c0,0.3,0.1,0.5,0.3,0.5l1.3,0.1l0.2,0.6l0.7,0
				c0,0-0.1-1.4-0.8-2.2C39.6,30.2,39.4,30.1,39.2,30.1z"/>
		</g>
	</g>
	<g>
		<path class="st1" d="M41.5,19.2h-3v-1.1c0-0.2-0.2-0.4-0.4-0.4h-0.6c-0.2,0-0.4,0.2-0.4,0.4v1.1H24.6v-1.1c0-0.2-0.2-0.4-0.4-0.4
			h-0.6c-0.2,0-0.4,0.2-0.4,0.4v1.1h-2.8c-0.9,0-1.6,0.7-1.6,1.6v6.3v16.5c0,0.9,0.7,1.6,1.6,1.6h21c0.9,0,1.6-0.7,1.6-1.6V27.1
			v-6.3C43.1,19.9,42.4,19.2,41.5,19.2z"/>
		<path class="st5" d="M17.7,42.4c0,0.9,0.7,1.6,1.6,1.6h21c0.9,0,1.6-0.7,1.6-1.6V25.9H17.7V42.4z"/>
		<path class="st8" d="M40.4,18h-21c-0.9,0-1.6,0.7-1.6,1.6v6.3H42v-6.3C42,18.8,41.2,18,40.4,18z"/>
		<g>
			<rect x="25.5" y="27.6" class="st48" width="3" height="3"/>
			<rect x="31" y="27.6" class="st48" width="3" height="3"/>
			<rect x="31" y="38.5" class="st48" width="3" height="3"/>
			<rect x="36.5" y="27.6" class="st48" width="3" height="3"/>
			<rect x="36.5" y="38.4" class="st48" width="3" height="3"/>
			<rect x="36.5" y="33.2" class="st48" width="3" height="3"/>
			<rect x="20" y="33.2" class="st48" width="3" height="3"/>
			<rect x="25.5" y="33.2" class="st48" width="3" height="3"/>
			<rect x="31" y="33.2" class="st48" width="3" height="3"/>
			<rect x="20" y="38.6" class="st48" width="3" height="3"/>
			<rect x="25.5" y="38.6" class="st48" width="3" height="3"/>
		</g>
		<path class="st48" d="M23.1,20.2h-0.6c-0.2,0-0.4-0.2-0.4-0.4v-2.9c0-0.2,0.2-0.4,0.4-0.4h0.6c0.2,0,0.4,0.2,0.4,0.4v2.9
			C23.5,20,23.3,20.2,23.1,20.2z"/>
		<path class="st5" d="M24.3,22.4v-0.9c0-0.2,0.2-0.4,0.4-0.4h10.4c0.2,0,0.4,0.2,0.4,0.4v0.9c0,0.2-0.2,0.4-0.4,0.4H24.7
			C24.5,22.8,24.3,22.6,24.3,22.4z"/>
		<path class="st48" d="M37,20.2h-0.6c-0.2,0-0.4-0.2-0.4-0.4v-2.9c0-0.2,0.2-0.4,0.4-0.4H37c0.2,0,0.4,0.2,0.4,0.4v2.9
			C37.4,20,37.2,20.2,37,20.2z"/>
	</g>
</g>
</svg>
