<?xml version="1.0" encoding="utf-8"?>
<!-- Generator: Adobe Illustrator 22.0.0, SVG Export Plug-In . SVG Version: 6.00 Build 0)  -->
<svg version="1.1" id="Layer_1" xmlns="http://www.w3.org/2000/svg" xmlns:xlink="http://www.w3.org/1999/xlink" x="0px" y="0px"
	 viewBox="0 0 62 62" style="enable-background:new 0 0 62 62;" xml:space="preserve">
<style type="text/css">
	.st0{fill:#FFFFFF;}
	.st1{opacity:0.21;}
	.st2{fill:#1D1C1A;}
	.st3{fill:#E63D33;}
	.st4{fill:#AE202B;}
	.st5{fill:#FFF7F7;}
	.st6{opacity:0.1;}
	.st7{fill:#7393CB;}
	.st8{fill:#1C1C1A;}
	.st9{fill:#E53E33;}
	.st10{fill:#AD202B;}
	.st11{opacity:0.1;fill:#AD202B;}
	.st12{fill:#C22329;}
	.st13{opacity:0.1;fill:#C22329;}
	.st14{fill:#FDF6F6;}
	.st15{clip-path:url(#SVGID_4_);}
	.st16{fill:#DDE8F4;}
	.st17{display:none;fill:none;stroke:#1C1C1A;stroke-width:2;stroke-miterlimit:10;}
	.st18{fill:#FDF6F6;stroke:#1C1C1A;stroke-width:0.5;stroke-miterlimit:10;}
	.st19{fill:none;stroke:#1C1C1A;stroke-miterlimit:10;}
	.st20{fill:#F7E3E2;}
	.st21{opacity:0.21;fill:#1C1C1A;}
	.st22{fill:#C32228;}
	.st23{fill:#FFF7F7;stroke:#1C1C1A;stroke-width:0.15;stroke-miterlimit:10;}
	.st24{fill:#C0252A;}
	.st25{fill:#0B1C2B;}
	.st26{opacity:0.1;fill:#1C1C1A;}
	.st27{fill:#696969;}
	.st28{fill:#FFF7F7;stroke:#1C1C1A;stroke-width:0.5;stroke-miterlimit:10;}
	.st29{fill:none;}
	.st30{fill:#FFF8F9;stroke:#1D1C1A;stroke-width:0.25;stroke-miterlimit:10;}
	.st31{fill:#E63D32;}
	.st32{clip-path:url(#SVGID_12_);}
	.st33{fill:#E63D32;stroke:#1D1C1A;stroke-width:0.5;stroke-miterlimit:10;}
	.st34{fill:#E63D34;}
	.st35{fill:#2E2E2E;}
	.st36{fill:#AA202B;}
	.st37{clip-path:url(#SVGID_16_);}
	.st38{fill:#FFF8F9;}
	.st39{fill:#231F20;}
	.st40{fill:#242A3C;}
	.st41{clip-path:url(#SVGID_20_);}
	.st42{fill:none;stroke:#CDCA87;stroke-width:0.5;stroke-miterlimit:10;}
	.st43{clip-path:url(#SVGID_22_);}
	.st44{clip-path:url(#SVGID_24_);fill:#1D1C1A;}
	.st45{clip-path:url(#SVGID_26_);}
	.st46{clip-path:url(#SVGID_28_);fill:#1D1C1A;}
	.st47{fill:#FFFFFF;stroke:#1D1C1A;stroke-width:0.5;stroke-miterlimit:10;}
	.st48{fill:#D7E0E5;}
	.st49{opacity:0.5;fill:#D7E0E5;}
	.st50{clip-path:url(#SVGID_32_);}
	.st51{fill:#F6F7F7;stroke:#1C1C1A;stroke-width:0.5;stroke-miterlimit:10;}
	.st52{fill:#FFFFFF;stroke:#231F20;stroke-width:0.5;stroke-miterlimit:10;}
	.st53{fill:#D8E0E6;stroke:#1D1C1A;stroke-width:0.5;stroke-miterlimit:10;}
	.st54{clip-path:url(#SVGID_34_);}
	.st55{clip-path:url(#SVGID_36_);fill:#1D1C1A;}
	.st56{clip-path:url(#SVGID_38_);}
	.st57{clip-path:url(#SVGID_40_);fill:#1D1C1A;}
	.st58{opacity:0.1;fill:#1D1C1A;}
	.st59{clip-path:url(#SVGID_44_);}
	.st60{clip-path:url(#SVGID_46_);fill:#1D1C1A;}
	.st61{clip-path:url(#SVGID_48_);}
	.st62{clip-path:url(#SVGID_50_);fill:#1D1C1A;}
	.st63{clip-path:url(#SVGID_54_);}
	.st64{clip-path:url(#SVGID_56_);}
	.st65{clip-path:url(#SVGID_58_);fill:#1D1C1A;}
	.st66{clip-path:url(#SVGID_60_);}
	.st67{clip-path:url(#SVGID_62_);fill:#1D1C1A;}
	.st68{clip-path:url(#SVGID_66_);}
	.st69{clip-path:url(#SVGID_68_);fill:#1D1C1A;}
	.st70{clip-path:url(#SVGID_70_);}
	.st71{clip-path:url(#SVGID_72_);fill:#1D1C1A;}
	.st72{clip-path:url(#SVGID_76_);}
	.st73{clip-path:url(#SVGID_78_);}
	.st74{clip-path:url(#SVGID_80_);fill:#1D1C1A;}
	.st75{clip-path:url(#SVGID_82_);}
	.st76{clip-path:url(#SVGID_84_);fill:#1D1C1A;}
	.st77{clip-path:url(#SVGID_88_);}
	.st78{fill:#FDF6F6;stroke:#1C1C1A;stroke-width:0.25;stroke-miterlimit:10;}
	.st79{clip-path:url(#SVGID_90_);}
	.st80{fill:#D8E0E6;}
	.st81{clip-path:url(#SVGID_94_);}
	.st82{clip-path:url(#SVGID_96_);}
	.st83{clip-path:url(#SVGID_100_);}
	.st84{clip-path:url(#SVGID_102_);}
	.st85{clip-path:url(#SVGID_104_);}
	.st86{clip-path:url(#SVGID_106_);fill:#1D1C1A;}
	.st87{clip-path:url(#SVGID_108_);}
	.st88{clip-path:url(#SVGID_110_);fill:#1D1C1A;}
	.st89{clip-path:url(#SVGID_114_);}
	.st90{clip-path:url(#SVGID_116_);}
	.st91{clip-path:url(#SVGID_118_);fill:#1D1C1A;}
	.st92{clip-path:url(#SVGID_120_);}
	.st93{clip-path:url(#SVGID_122_);fill:#1D1C1A;}
	.st94{fill:#D8E0E6;stroke:#1D1C1A;stroke-width:0.25;stroke-miterlimit:10;}
</style>
<g>
	<line class="st1" x1="36.8" y1="41.2" x2="28.8" y2="40.7"/>
	<path class="st1" d="M39.2,39.4l6.8-6.6c0.4-0.4,1-0.7,1.7-0.7c0.5,0,1,0.1,1.4,0.6s0.6,1,0.6,1.5c0,0.8-0.3,1.5-0.9,2
		c-1.6,1.6-6.7,6.8-8.5,8.4c-1.6,1.5-3.5,1.4-3.5,1.4l-11.7-0.7L25,45.5l-2.3,1.9l-5.8-6l5.2-4.5c0,0,1.3-1.2,4.3-0.7s10.6,1,10.6,1
		"/>
	<g>
		<g>
			<circle class="st19" cx="33.9" cy="22.7" r="11"/>
			<circle class="st8" cx="33.9" cy="22.7" r="11"/>
			<circle class="st5" cx="33.8" cy="22.7" r="7.2"/>
			<g>
				<path class="st8" d="M31,17.1l2.1,3.6c0.3,0.6,1.1,0.6,1.5,0l2.1-3.6c0,0-0.8-0.8-2.8-0.8C31.9,16.2,31,17.1,31,17.1z"/>
				<path class="st8" d="M38.2,18.1l-2.6,3.3c-0.4,0.5-0.1,1.3,0.6,1.3l4.2,0.6c0,0,0.4-1.1-0.3-2.9C39.3,18.6,38.2,18.1,38.2,18.1z
					"/>
				<path class="st8" d="M39.8,25.3l-4-1.4c-0.6-0.2-1.2,0.3-1.1,0.9l0.8,4.1c0,0,1.2,0.1,2.7-1.2C39.6,26.5,39.8,25.3,39.8,25.3z"
					/>
				<path class="st8" d="M33.1,29.1l0.3-4.2c0-0.6-0.6-1.1-1.2-0.8l-3.8,1.9c0,0,0.2,1.1,1.9,2.2C31.8,29.3,33.1,29.1,33.1,29.1z"/>
				<path class="st8" d="M27.5,23.8l4.2-0.9c0.6-0.1,0.9-0.9,0.4-1.4l-2.9-3.1c0,0-1,0.6-1.6,2.4C26.9,22.7,27.5,23.8,27.5,23.8z"/>
			</g>
		</g>
		<path class="st48" d="M38.8,38.5l6.8-6.6c0.4-0.4,1-0.7,1.7-0.7c0.5,0,1,0.1,1.4,0.6c0.5,0.4,0.6,1,0.6,1.5c0,0.8-0.3,1.5-0.9,2
			c-1.6,1.6-6.7,6.8-8.5,8.4c-1.6,1.5-3.5,1.4-3.5,1.4l-11.7-0.7l-0.2,0.2l-2.3,1.9l-5.8-6l5.2-4.5c0,0,1.3-1.2,4.3-0.7
			c3.1,0.4,10.6,1,10.6,1s2,0.2,2.1,2.3c0.1,2.1-2.2,1.8-2.2,1.8l-8-0.5"/>
		<path class="st8" d="M19.7,50L19.7,50c0.4,0.3,0.9,0.3,1.3,0l2.1-1.8c0.5-0.4,0.5-1.1,0-1.5l-7.2-6.9c-0.4-0.4-1-0.4-1.4,0l-2,1.8
			c-0.4,0.4-0.4,1.1,0,1.5L19.7,50z"/>
		<path class="st21" d="M28,39.7c0,0,7.7,0.5,7.7,0.5c1.6,0.2,2.5-0.2,2.8-1.2c0-0.2,0.1-0.3,0.1-0.5c0,0.3,0,0.7,0,1
			c-0.1,0.6-0.5,1.2-1.1,1.5c-0.6,0.2-1.1,0.1-1.7-0.1c-0.4-0.1-0.8-0.1-1.3-0.2c-1-0.2-2-0.3-2.9-0.5c-0.9-0.1-1.7-0.3-2.6-0.4
			C28.7,39.8,28.3,39.7,28,39.7z"/>
		<g>
			<g>
				<path d="M12.4,42.8L12.4,42.8c-0.2-0.2-0.2-0.4-0.1-0.5l2.6-2.7c0.1-0.1,0.3-0.1,0.4,0l0,0c0.1,0.1,0.1,0.3,0,0.4l-2.6,2.7
					C12.8,42.9,12.6,42.9,12.4,42.8z"/>
				<path d="M13.5,43.9L13.5,43.9c-0.2-0.2-0.2-0.4-0.1-0.5l2.6-2.7c0.1-0.1,0.3-0.1,0.4,0l0,0c0.1,0.1,0.1,0.3,0,0.4L14,43.9
					C13.9,44,13.7,44,13.5,43.9z"/>
				<path d="M14.7,44.9L14.7,44.9c-0.2-0.2-0.2-0.4-0.1-0.5l2.6-2.7c0.1-0.1,0.3-0.1,0.4,0l0,0c0.1,0.1,0.1,0.3,0,0.4l-2.6,2.7
					C15,45.1,14.8,45.1,14.7,44.9z"/>
				<path d="M15.8,46L15.8,46c-0.2-0.2-0.2-0.4-0.1-0.5l2.6-2.7c0.1-0.1,0.3-0.1,0.4,0l0,0c0.1,0.1,0.1,0.3,0,0.4L16.2,46
					C16.1,46.1,15.9,46.1,15.8,46z"/>
				<path d="M16.9,47.1L16.9,47.1c-0.2-0.2-0.2-0.4-0.1-0.5l2.6-2.7c0.1-0.1,0.3-0.1,0.4,0l0,0c0.1,0.1,0.1,0.3,0,0.4l-2.6,2.7
					C17.2,47.2,17,47.2,16.9,47.1z"/>
				<path d="M18,48.1L18,48.1c-0.2-0.2-0.2-0.4-0.1-0.5l2.6-2.7c0.1-0.1,0.3-0.1,0.4,0l0,0c0.1,0.1,0.1,0.3,0,0.4l-2.6,2.7
					C18.3,48.2,18.1,48.2,18,48.1z"/>
				<path d="M19.1,49.2L19.1,49.2C19,49,19,48.8,19.1,48.7l2.6-2.7c0.1-0.1,0.3-0.1,0.4,0l0,0c0.1,0.1,0.1,0.3,0,0.4l-2.6,2.7
					C19.4,49.3,19.2,49.3,19.1,49.2z"/>
				<path d="M20.2,50.3L20.2,50.3c-0.2-0.2-0.2-0.4-0.1-0.5l2.6-2.7c0.1-0.1,0.3-0.1,0.4,0l0,0c0.1,0.1,0.1,0.3,0,0.4l-2.6,2.7
					C20.6,50.4,20.4,50.4,20.2,50.3z"/>
			</g>
		</g>
	</g>
</g>
</svg>
