<?xml version="1.0" encoding="utf-8"?>
<!-- Generator: Adobe Illustrator 22.0.0, SVG Export Plug-In . SVG Version: 6.00 Build 0)  -->
<svg version="1.1" id="Layer_1" xmlns="http://www.w3.org/2000/svg" xmlns:xlink="http://www.w3.org/1999/xlink" x="0px" y="0px"
	 viewBox="0 0 62 62" style="enable-background:new 0 0 62 62;" xml:space="preserve">
<style type="text/css">
	.st0{fill:#FFFFFF;}
	.st1{opacity:0.21;}
	.st2{fill:#1D1C1A;}
	.st3{fill:#E63D33;}
	.st4{fill:#AE202B;}
	.st5{fill:#FFF7F7;}
	.st6{opacity:0.1;}
	.st7{fill:#7393CB;}
	.st8{fill:#1C1C1A;}
	.st9{fill:#E53E33;}
	.st10{fill:#AD202B;}
	.st11{opacity:0.1;fill:#AD202B;}
	.st12{fill:#C22329;}
	.st13{opacity:0.1;fill:#C22329;}
	.st14{fill:#FDF6F6;}
	.st15{clip-path:url(#SVGID_4_);}
	.st16{fill:#DDE8F4;}
	.st17{display:none;fill:none;stroke:#1C1C1A;stroke-width:2;stroke-miterlimit:10;}
	.st18{fill:#FDF6F6;stroke:#1C1C1A;stroke-width:0.5;stroke-miterlimit:10;}
	.st19{fill:none;stroke:#1C1C1A;stroke-miterlimit:10;}
	.st20{fill:#F7E3E2;}
	.st21{opacity:0.21;fill:#1C1C1A;}
	.st22{fill:#C32228;}
	.st23{fill:#FFF7F7;stroke:#1C1C1A;stroke-width:0.15;stroke-miterlimit:10;}
	.st24{fill:#C0252A;}
	.st25{fill:#0B1C2B;}
	.st26{opacity:0.1;fill:#1C1C1A;}
	.st27{fill:#696969;}
	.st28{fill:#FFF7F7;stroke:#1C1C1A;stroke-width:0.5;stroke-miterlimit:10;}
	.st29{fill:none;}
	.st30{fill:#FFF8F9;stroke:#1D1C1A;stroke-width:0.25;stroke-miterlimit:10;}
	.st31{fill:#E63D32;}
	.st32{clip-path:url(#SVGID_12_);}
	.st33{fill:#E63D32;stroke:#1D1C1A;stroke-width:0.5;stroke-miterlimit:10;}
	.st34{fill:#E63D34;}
	.st35{fill:#2E2E2E;}
	.st36{fill:#AA202B;}
	.st37{clip-path:url(#SVGID_16_);}
	.st38{fill:#FFF8F9;}
	.st39{fill:#231F20;}
	.st40{fill:#242A3C;}
	.st41{clip-path:url(#SVGID_20_);}
	.st42{fill:none;stroke:#CDCA87;stroke-width:0.5;stroke-miterlimit:10;}
	.st43{clip-path:url(#SVGID_22_);}
	.st44{clip-path:url(#SVGID_24_);fill:#1D1C1A;}
	.st45{clip-path:url(#SVGID_26_);}
	.st46{clip-path:url(#SVGID_28_);fill:#1D1C1A;}
	.st47{fill:#FFFFFF;stroke:#1D1C1A;stroke-width:0.5;stroke-miterlimit:10;}
	.st48{fill:#D7E0E5;}
	.st49{opacity:0.5;fill:#D7E0E5;}
	.st50{clip-path:url(#SVGID_32_);}
	.st51{fill:#F6F7F7;stroke:#1C1C1A;stroke-width:0.5;stroke-miterlimit:10;}
	.st52{fill:#FFFFFF;stroke:#231F20;stroke-width:0.5;stroke-miterlimit:10;}
	.st53{fill:#D8E0E6;stroke:#1D1C1A;stroke-width:0.5;stroke-miterlimit:10;}
	.st54{clip-path:url(#SVGID_34_);}
	.st55{clip-path:url(#SVGID_36_);fill:#1D1C1A;}
	.st56{clip-path:url(#SVGID_38_);}
	.st57{clip-path:url(#SVGID_40_);fill:#1D1C1A;}
	.st58{opacity:0.1;fill:#1D1C1A;}
	.st59{clip-path:url(#SVGID_44_);}
	.st60{clip-path:url(#SVGID_46_);fill:#1D1C1A;}
	.st61{clip-path:url(#SVGID_48_);}
	.st62{clip-path:url(#SVGID_50_);fill:#1D1C1A;}
	.st63{clip-path:url(#SVGID_54_);}
	.st64{clip-path:url(#SVGID_56_);}
	.st65{clip-path:url(#SVGID_58_);fill:#1D1C1A;}
	.st66{clip-path:url(#SVGID_60_);}
	.st67{clip-path:url(#SVGID_62_);fill:#1D1C1A;}
	.st68{clip-path:url(#SVGID_66_);}
	.st69{clip-path:url(#SVGID_68_);fill:#1D1C1A;}
	.st70{clip-path:url(#SVGID_70_);}
	.st71{clip-path:url(#SVGID_72_);fill:#1D1C1A;}
	.st72{clip-path:url(#SVGID_76_);}
	.st73{clip-path:url(#SVGID_78_);}
	.st74{clip-path:url(#SVGID_80_);fill:#1D1C1A;}
	.st75{clip-path:url(#SVGID_82_);}
	.st76{clip-path:url(#SVGID_84_);fill:#1D1C1A;}
	.st77{clip-path:url(#SVGID_88_);}
	.st78{fill:#FDF6F6;stroke:#1C1C1A;stroke-width:0.25;stroke-miterlimit:10;}
	.st79{clip-path:url(#SVGID_90_);}
	.st80{fill:#D8E0E6;}
	.st81{clip-path:url(#SVGID_94_);}
	.st82{clip-path:url(#SVGID_96_);}
	.st83{clip-path:url(#SVGID_100_);}
	.st84{clip-path:url(#SVGID_102_);}
	.st85{clip-path:url(#SVGID_104_);}
	.st86{clip-path:url(#SVGID_106_);fill:#1D1C1A;}
	.st87{clip-path:url(#SVGID_108_);}
	.st88{clip-path:url(#SVGID_110_);fill:#1D1C1A;}
	.st89{clip-path:url(#SVGID_114_);}
	.st90{clip-path:url(#SVGID_116_);}
	.st91{clip-path:url(#SVGID_118_);fill:#1D1C1A;}
	.st92{clip-path:url(#SVGID_120_);}
	.st93{clip-path:url(#SVGID_122_);fill:#1D1C1A;}
	.st94{fill:#D8E0E6;stroke:#1D1C1A;stroke-width:0.25;stroke-miterlimit:10;}
</style>
<g>
	<g>
		<g>
			<defs>
				<polygon id="SVGID_89_" points="30.3,39.8 49.1,29.3 44.8,23.3 37.3,16.5 22.8,15.7 12.1,15.7 3.8,13.4 1.8,28 6.6,30.8 
					4.6,38.7 8.6,41.5 17.9,39.3 				"/>
			</defs>
			<clipPath id="SVGID_2_">
				<use xlink:href="#SVGID_89_"  style="overflow:visible;"/>
			</clipPath>
			<g style="clip-path:url(#SVGID_2_);">
				<g>
					<g>
						<g>
							<path class="st38" d="M42,23.2c0,0-0.3-0.8-1.2-0.9c0,0-5.4-1.8-12.7-1.8c0,0-7.1-0.3-13.6,1.8c0,0-0.8,0.1-1.1,0.9L6.9,37.5
								c0,0-0.3,1.1,0.9,1.1c0,0,11.7-1.9,21.4-1.6c0,0,11.3,0.2,18.5,1.6c0,0,1.3-0.1,0.3-1.8L42,23.2z"/>
							<path class="st2" d="M6.8,38.4c-0.3-0.4-0.2-0.9-0.1-1l6.4-14.3c0.3-1,1.3-1.1,1.3-1.1c6.4-2.1,13.6-1.8,13.7-1.8
								c7.2,0,12.7,1.8,12.7,1.8c1,0.1,1.3,1,1.4,1.1l6,13.5c0.4,0.7,0.5,1.3,0.3,1.7c-0.3,0.5-0.8,0.5-0.9,0.5
								c-7-1.3-18.3-1.6-18.4-1.6C19.6,36.9,8,38.8,7.8,38.8C7.4,38.8,7,38.6,6.8,38.4z M29.2,36.7c0.1,0,11.4,0.2,18.4,1.6
								c0,0,0.3,0,0.4-0.2c0.1-0.2,0-0.7-0.3-1.2l-6.1-13.5l0,0c0,0-0.3-0.7-1-0.8c-0.1,0-5.5-1.8-12.6-1.8c-0.1,0-7.2-0.2-13.6,1.8
								c0,0-0.7,0.1-0.9,0.8L7.2,37.5c0,0-0.1,0.3,0.1,0.5c0.1,0.1,0.3,0.2,0.5,0.2c0.1,0,10-1.6,19.1-1.6
								C27.7,36.7,28.4,36.7,29.2,36.7z"/>
						</g>
						<g>
							<g>
								<path class="st2" d="M23.4,37l-2.5-2c-0.1-0.5,0.1-0.7,0.1-0.7c0.3-0.2,0.7,0,0.7,0l3,2.4c0,0-0.3-0.2-0.6,0.2
									C24.1,37,23.7,37.2,23.4,37z"/>
							</g>
							<g>
								<path class="st2" d="M17.3,34.9l-5.6-0.6c-0.4-0.3-0.3-0.6-0.3-0.6c0.1-0.4,0.5-0.4,0.5-0.4l6.9,0.7l5.7,0.6
									c0,0,0.4,0,0.5,0.5c0,0,0,0.5-0.6,0.5L17.3,34.9z"/>
							</g>
						</g>
						<g>
							
								<rect x="29.7" y="22.2" transform="matrix(0.5282 -0.8491 0.8491 0.5282 -7.276 37.1416)" class="st39" width="0.2" height="5.9"/>
						</g>
						<g>
							<polygon class="st39" points="34.1,30 34.3,29.8 24.1,23.5 24,23.7 							"/>
						</g>
					</g>
					<path class="st30" d="M16.9,23.3L16,23.9c-0.2,0.2-0.4,0.4-0.6,0.6l-0.3,0.7L15,25.5c0,0.1-0.2,0.1-0.2,0l0-0.1l-0.5-0.8
						c0-0.1-0.1-0.1-0.1-0.2c-0.2-0.2-0.4-0.4-0.7-0.6l-0.9-0.4c-0.1,0-0.1-0.2,0-0.2l0.9-0.6c0.3-0.2,0.5-0.4,0.7-0.8l0.4-0.9
						c0-0.1,0.2-0.1,0.2,0l0.6,0.9c0.2,0.2,0.4,0.4,0.6,0.6l0.7,0.3l0.3,0.1C17,23.1,17,23.2,16.9,23.3z"/>
				</g>
				<path class="st30" d="M12,20.6l-1.4,0.9c-0.4,0.2-0.7,0.6-0.9,1l-0.5,1L9,24c-0.1,0.1-0.2,0.1-0.3,0l-0.1-0.1l-0.7-1.1
					c-0.1-0.1-0.1-0.2-0.2-0.2c-0.3-0.4-0.7-0.7-1.1-0.9l-1.3-0.6c-0.1-0.1-0.1-0.2,0-0.3l1.3-0.8c0.4-0.3,0.8-0.7,1-1.1l0.7-1.4
					c0.1-0.1,0.2-0.1,0.3,0l0.9,1.4c0.2,0.4,0.6,0.7,1,0.9l1.1,0.5l0.4,0.2C12.1,20.4,12.1,20.6,12,20.6z"/>
			</g>
		</g>
	</g>
	<g>
		<path class="st1" d="M56,25.9c-1.4-0.5-3,0.3-3.4,1.7c0,0.1-0.1,0.3-0.1,0.4l-1.4,0.7c-0.4-0.3-0.9-0.4-1.4-0.2l-2.3,1.2
			c0-0.5,0.1-0.9,0.2-1.1c0.2-0.6,0.9,0.6,0.9,0.6l1.1-0.6c-0.4-0.6-0.8-2.2-2.3-2c-1.2,0.2-1.5,2.6-1.5,3.9
			c-0.4-0.6-0.8-2.2-2.3-1.9c-1.1,0.2-1.4,2.2-1.5,3.6c-0.4-0.7-0.9-2-2.1-1.7c-1.3,0.2-1.5,2.6-1.5,3.9l-4.7,2.4L33,35.2
			c-0.2-0.4-0.7-0.6-1.1-0.4L29.6,36c-0.4,0.2-0.6,0.7-0.4,1.1l0.2,0.5l-2.8,1.4L26,41.2c-0.2-0.1-0.4-0.2-0.7-0.3
			c-1.8-0.6-3.8,0.4-4.4,2.2c-0.6,1.8,0.4,3.8,2.2,4.4c1.8,0.6,3.8-0.4,4.4-2.2c0.1-0.3,0.1-0.5,0.2-0.8l2.3,0.8l2.8-1.4l0.2,0.4
			c0.2,0.4,0.7,0.6,1.1,0.4l2.2-1.1c0.4-0.2,0.6-0.7,0.4-1.1l-0.8-1.5l0.5-0.3c0.2,1.4,1.8,2.7,2.6,2c0.6-0.6,1.1-1.5,1.1-3.5
			c0.4,1.3,1.8,2.4,2.5,1.7c0.7-0.6,1.1-1.6,1.1-3.9l0.1,0c0.2,1.4,1.8,2.7,2.6,2c0.7-0.6,1.1-1.6,1.1-3.9l4.3-2.2
			c0.5-0.2,0.7-0.8,0.6-1.3l1.3-0.7c0.2,0.1,0.3,0.2,0.5,0.2c1.4,0.5,3-0.3,3.4-1.7C58.3,27.9,57.5,26.4,56,25.9z M24.7,42.8
			c0.8,0.3,1.2,1.1,1,1.9c-0.3,0.8-1.1,1.2-1.9,1c-0.8-0.3-1.2-1.1-1-1.9C23,43,23.9,42.5,24.7,42.8z M44.9,36.4l1.1-0.6
			c0,0.5,0,1-0.1,1.2C45.6,37.9,44.9,36.4,44.9,36.4z M41.1,38.3l1.1-0.6c0,0.5,0,1-0.1,1.2C41.8,39.8,41.1,38.3,41.1,38.3z
			 M37.5,40.1l1.1-0.6c0,0.5,0,1-0.1,1.2C38.2,41.7,37.5,40.1,37.5,40.1z M41.1,33l0.9-0.5c0,0,0,0,0,0l-2,1c0-0.5,0.1-0.9,0.2-1.1
			C40.4,31.8,41.1,33,41.1,33z M45.9,30.6l-2.2,1.1c0-0.5,0.1-0.9,0.2-1.1c0.2-0.6,0.9,0.6,0.9,0.6L45.9,30.6
			C45.9,30.6,45.9,30.6,45.9,30.6z M55.5,27.3c0.7,0.2,1,0.9,0.8,1.6c-0.2,0.7-0.9,1-1.6,0.8c-0.7-0.2-1-0.9-0.8-1.6
			C54.1,27.5,54.8,27.1,55.5,27.3z"/>
		<path class="st8" d="M29.7,38.2l3.4,6.8c0.3,0.5,0.9,0.7,1.5,0.5l1.7-0.9c0.5-0.3,0.7-0.9,0.5-1.5l-3.4-6.8
			c-0.3-0.5-0.9-0.7-1.5-0.5l-1.7,0.9C29.7,37,29.4,37.6,29.7,38.2z"/>
		<path class="st8" d="M27,39.8L26.3,42c-0.2-0.1-0.4-0.2-0.7-0.3c-1.8-0.6-3.8,0.4-4.4,2.2s0.4,3.8,2.2,4.4
			c1.8,0.6,3.8-0.4,4.4-2.2c0.1-0.3,0.1-0.5,0.2-0.8l2.3,0.8l2.9-1.5l-3.2-6.4L27,39.8z M25,43.7c0.8,0.3,1.2,1.1,1,1.9
			c-0.3,0.8-1.1,1.2-1.9,1c-0.8-0.3-1.2-1.1-1-1.9C23.4,43.8,24.2,43.4,25,43.7z"/>
		<path class="st8" d="M52.9,28.5c0,0.1-0.1,0.3-0.1,0.4L51,29.9l1.4,2.8l1.8-0.9c0.2,0.1,0.3,0.2,0.5,0.2c1.4,0.5,3-0.3,3.4-1.7
			c0.5-1.4-0.3-3-1.7-3.4C54.9,26.3,53.4,27.1,52.9,28.5z M55,30.5c-0.7-0.2-1-0.9-0.8-1.6c0.2-0.7,0.9-1,1.6-0.8
			c0.7,0.2,1,0.9,0.8,1.6C56.4,30.4,55.7,30.8,55,30.5z"/>
		<path class="st8" d="M33.9,37.7l2.1,4.2l15.8-8c0.8-0.4,1.1-1.4,0.7-2.2l-0.7-1.4c-0.4-0.8-1.4-1.1-2.2-0.7L33.9,37.7z"/>
		<path class="st80" d="M50,29.5l-1.1,0.6c0,0-0.7-1.2-0.9-0.6s-0.3,1.6-0.1,4.9s-0.3,4.5-1.1,5.3c-0.8,0.8-2.4-0.5-2.6-2l1.1-0.5
			c0,0,0.7,1.5,1,0.6c0.3-0.9,0-5,0-5.8c0-0.7,0-4.3,1.5-4.6C49.2,27.3,49.6,28.9,50,29.5z"/>
		<path class="st80" d="M46.2,31.4L45.1,32c0,0-0.7-1.2-0.9-0.6s-0.3,1.6-0.1,4.9s-0.3,4.5-1.1,5.3c-0.8,0.8-2.4-0.5-2.6-2l1.1-0.5
			c0,0,0.7,1.5,1,0.6c0.3-0.9,0-5,0-5.8c0-0.7,0-4.3,1.5-4.6C45.4,29.2,45.8,30.8,46.2,31.4z"/>
		<path class="st80" d="M42.6,33.3l-1.1,0.6c0,0-0.7-1.2-0.9-0.6c-0.2,0.6-0.3,1.6-0.1,4.9s-0.3,4.5-1.1,5.3c-0.8,0.8-2.4-0.5-2.6-2
			l1.1-0.5c0,0,0.7,1.5,1,0.6c0.3-0.9,0-5,0-5.8c0-0.7,0-4.3,1.5-4.6C41.7,31,42.1,32.7,42.6,33.3z"/>
		<path class="st6" d="M33.3,36.1l0.1,0.3l-2,1c-0.4,0.2-0.6,0.7-0.4,1.1l3.5,7l-0.2,0.1c-0.4,0.2-0.9,0-1.1-0.4l-3.7-7.2
			c-0.2-0.4,0-0.9,0.4-1.1l2.2-1.1C32.6,35.5,33.1,35.7,33.3,36.1z"/>
	</g>
</g>
</svg>
